%TF.GenerationSoftware,KiCad,Pcbnew,6.0.9-8da3e8f707~116~ubuntu20.04.1*%
%TF.CreationDate,2022-11-14T11:54:21+01:00*%
%TF.ProjectId,shield_b,73686965-6c64-45f6-922e-6b696361645f,1.2*%
%TF.SameCoordinates,Original*%
%TF.FileFunction,Drillmap*%
%TF.FilePolarity,Positive*%
%FSLAX45Y45*%
G04 Gerber Fmt 4.5, Leading zero omitted, Abs format (unit mm)*
G04 Created by KiCad (PCBNEW 6.0.9-8da3e8f707~116~ubuntu20.04.1) date 2022-11-14 11:54:21*
%MOMM*%
%LPD*%
G01*
G04 APERTURE LIST*
%ADD10C,0.100000*%
%ADD11C,0.200000*%
G04 APERTURE END LIST*
D10*
X13675000Y-9300000D02*
X13675000Y-9580000D01*
X13930000Y-9045000D02*
X13675000Y-9300000D01*
X13675000Y-5515000D02*
X13930000Y-5770000D01*
X7025000Y-4195000D02*
X13495000Y-4195000D01*
X13675000Y-4375000D02*
X13675000Y-5515000D01*
X13495000Y-4195000D02*
X13675000Y-4375000D01*
X7020000Y-9580000D02*
X7025000Y-4195000D01*
X13675000Y-9580000D02*
X7020000Y-9580000D01*
X13930000Y-5770000D02*
X13930000Y-9045000D01*
D11*
X7272619Y-9895476D02*
X7272619Y-9695476D01*
X7320238Y-9695476D01*
X7348809Y-9705000D01*
X7367857Y-9724048D01*
X7377381Y-9743095D01*
X7386905Y-9781190D01*
X7386905Y-9809762D01*
X7377381Y-9847857D01*
X7367857Y-9866905D01*
X7348809Y-9885952D01*
X7320238Y-9895476D01*
X7272619Y-9895476D01*
X7472619Y-9895476D02*
X7472619Y-9762143D01*
X7472619Y-9800238D02*
X7482143Y-9781190D01*
X7491667Y-9771667D01*
X7510714Y-9762143D01*
X7529762Y-9762143D01*
X7596428Y-9895476D02*
X7596428Y-9762143D01*
X7596428Y-9695476D02*
X7586905Y-9705000D01*
X7596428Y-9714524D01*
X7605952Y-9705000D01*
X7596428Y-9695476D01*
X7596428Y-9714524D01*
X7720238Y-9895476D02*
X7701190Y-9885952D01*
X7691667Y-9866905D01*
X7691667Y-9695476D01*
X7825000Y-9895476D02*
X7805952Y-9885952D01*
X7796428Y-9866905D01*
X7796428Y-9695476D01*
X8053571Y-9895476D02*
X8053571Y-9695476D01*
X8120238Y-9838333D01*
X8186905Y-9695476D01*
X8186905Y-9895476D01*
X8367857Y-9895476D02*
X8367857Y-9790714D01*
X8358333Y-9771667D01*
X8339286Y-9762143D01*
X8301190Y-9762143D01*
X8282143Y-9771667D01*
X8367857Y-9885952D02*
X8348809Y-9895476D01*
X8301190Y-9895476D01*
X8282143Y-9885952D01*
X8272619Y-9866905D01*
X8272619Y-9847857D01*
X8282143Y-9828810D01*
X8301190Y-9819286D01*
X8348809Y-9819286D01*
X8367857Y-9809762D01*
X8463095Y-9762143D02*
X8463095Y-9962143D01*
X8463095Y-9771667D02*
X8482143Y-9762143D01*
X8520238Y-9762143D01*
X8539286Y-9771667D01*
X8548810Y-9781190D01*
X8558333Y-9800238D01*
X8558333Y-9857381D01*
X8548810Y-9876429D01*
X8539286Y-9885952D01*
X8520238Y-9895476D01*
X8482143Y-9895476D01*
X8463095Y-9885952D01*
X8644048Y-9876429D02*
X8653571Y-9885952D01*
X8644048Y-9895476D01*
X8634524Y-9885952D01*
X8644048Y-9876429D01*
X8644048Y-9895476D01*
X8644048Y-9771667D02*
X8653571Y-9781190D01*
X8644048Y-9790714D01*
X8634524Y-9781190D01*
X8644048Y-9771667D01*
X8644048Y-9790714D01*
M02*
