%TF.GenerationSoftware,KiCad,Pcbnew,6.0.9-8da3e8f707~116~ubuntu20.04.1*%
%TF.CreationDate,2022-11-14T11:53:29+01:00*%
%TF.ProjectId,shield_b,73686965-6c64-45f6-922e-6b696361645f,1.2*%
%TF.SameCoordinates,Original*%
%TF.FileFunction,Legend,Bot*%
%TF.FilePolarity,Positive*%
%FSLAX46Y46*%
G04 Gerber Fmt 4.6, Leading zero omitted, Abs format (unit mm)*
G04 Created by KiCad (PCBNEW 6.0.9-8da3e8f707~116~ubuntu20.04.1) date 2022-11-14 11:53:29*
%MOMM*%
%LPD*%
G01*
G04 APERTURE LIST*
G04 Aperture macros list*
%AMRoundRect*
0 Rectangle with rounded corners*
0 $1 Rounding radius*
0 $2 $3 $4 $5 $6 $7 $8 $9 X,Y pos of 4 corners*
0 Add a 4 corners polygon primitive as box body*
4,1,4,$2,$3,$4,$5,$6,$7,$8,$9,$2,$3,0*
0 Add four circle primitives for the rounded corners*
1,1,$1+$1,$2,$3*
1,1,$1+$1,$4,$5*
1,1,$1+$1,$6,$7*
1,1,$1+$1,$8,$9*
0 Add four rect primitives between the rounded corners*
20,1,$1+$1,$2,$3,$4,$5,0*
20,1,$1+$1,$4,$5,$6,$7,0*
20,1,$1+$1,$6,$7,$8,$9,0*
20,1,$1+$1,$8,$9,$2,$3,0*%
G04 Aperture macros list end*
%ADD10C,0.150000*%
%ADD11C,0.120000*%
%ADD12R,1.600000X1.600000*%
%ADD13O,1.600000X1.600000*%
%ADD14C,1.600000*%
%ADD15R,1.800000X1.800000*%
%ADD16C,1.800000*%
%ADD17R,1.700000X1.700000*%
%ADD18O,1.700000X1.700000*%
%ADD19R,3.000000X3.000000*%
%ADD20C,3.000000*%
%ADD21C,2.000000*%
%ADD22RoundRect,0.250000X-0.600000X-0.725000X0.600000X-0.725000X0.600000X0.725000X-0.600000X0.725000X0*%
%ADD23O,1.700000X1.950000*%
%ADD24O,3.120000X3.640000*%
%ADD25R,2.200000X2.200000*%
%ADD26O,2.200000X2.200000*%
%ADD27R,2.000000X4.600000*%
%ADD28O,2.000000X4.200000*%
%ADD29O,4.200000X2.000000*%
%ADD30R,2.000000X2.000000*%
G04 APERTURE END LIST*
D10*
X100384285Y-96976666D02*
X99908095Y-96976666D01*
X100479523Y-97262380D02*
X100146190Y-96262380D01*
X99812857Y-97262380D01*
X98955714Y-97262380D02*
X99527142Y-97262380D01*
X99241428Y-97262380D02*
X99241428Y-96262380D01*
X99336666Y-96405238D01*
X99431904Y-96500476D01*
X99527142Y-96548095D01*
D11*
X68430000Y-92490000D02*
X68430000Y-83350000D01*
X139170000Y-90460000D02*
X136630000Y-93000000D01*
X136630000Y-95670000D02*
X70330000Y-95670000D01*
X136630000Y-43720000D02*
X136630000Y-55150000D01*
X63980000Y-63280000D02*
X63980000Y-51600000D01*
X136630000Y-55150000D02*
X139170000Y-57690000D01*
X63980000Y-51600000D02*
X70330000Y-51600000D01*
X70330000Y-95670000D02*
X70330000Y-92490000D01*
X70330000Y-63280000D02*
X63980000Y-63280000D01*
X70330000Y-92490000D02*
X68430000Y-92490000D01*
X139170000Y-57690000D02*
X139170000Y-90460000D01*
X70330000Y-51600000D02*
X70330000Y-42070000D01*
X134980000Y-42070000D02*
X136630000Y-43720000D01*
X68430000Y-83350000D02*
X70330000Y-83350000D01*
X70330000Y-42070000D02*
X134980000Y-42070000D01*
X136630000Y-93000000D02*
X136630000Y-95670000D01*
X70330000Y-83350000D02*
X70330000Y-63280000D01*
%LPC*%
D12*
X88392000Y-79492000D03*
D13*
X90932000Y-79492000D03*
X93472000Y-79492000D03*
X96012000Y-79492000D03*
X96012000Y-71872000D03*
X93472000Y-71872000D03*
X90932000Y-71872000D03*
X88392000Y-71872000D03*
D14*
X108000000Y-62100000D03*
D13*
X115620000Y-62100000D03*
D12*
X116596000Y-48150000D03*
D13*
X114056000Y-48150000D03*
X111516000Y-48150000D03*
X108976000Y-48150000D03*
X106436000Y-48150000D03*
X103896000Y-48150000D03*
X101356000Y-48150000D03*
X98816000Y-48150000D03*
X98816000Y-55770000D03*
X101356000Y-55770000D03*
X103896000Y-55770000D03*
X106436000Y-55770000D03*
X108976000Y-55770000D03*
X111516000Y-55770000D03*
X114056000Y-55770000D03*
X116596000Y-55770000D03*
D15*
X125150000Y-55375000D03*
D16*
X125150000Y-57915000D03*
D17*
X128700000Y-88650000D03*
D18*
X128700000Y-86110000D03*
X128700000Y-83570000D03*
X128700000Y-81030000D03*
D14*
X105700000Y-65100000D03*
D13*
X98080000Y-65100000D03*
D15*
X93980000Y-59949000D03*
D16*
X93980000Y-57409000D03*
D14*
X118080000Y-65100000D03*
D13*
X125700000Y-65100000D03*
D15*
X89408000Y-67564000D03*
D16*
X89408000Y-65024000D03*
D15*
X89408000Y-59949000D03*
D16*
X89408000Y-57409000D03*
D14*
X118080000Y-62100000D03*
D13*
X125700000Y-62100000D03*
D19*
X111760000Y-85850000D03*
D20*
X106680000Y-85850000D03*
D21*
X84328000Y-62432000D03*
X84328000Y-55932000D03*
D22*
X122300000Y-49450000D03*
D23*
X124800000Y-49450000D03*
X127300000Y-49450000D03*
X129800000Y-49450000D03*
X132300000Y-49450000D03*
D14*
X85090000Y-73112000D03*
X85090000Y-68112000D03*
X95600000Y-49300000D03*
X95600000Y-54300000D03*
X85090000Y-80478000D03*
X85090000Y-75478000D03*
X76708000Y-92964000D03*
D13*
X76708000Y-85344000D03*
D21*
X129250000Y-68750000D03*
X135750000Y-68750000D03*
X129250000Y-64250000D03*
X135750000Y-64250000D03*
X135750000Y-72050000D03*
X129250000Y-72050000D03*
X129250000Y-76550000D03*
X135750000Y-76550000D03*
D24*
X99366000Y-75438000D03*
X108966000Y-75438000D03*
D15*
X106666000Y-67938000D03*
D16*
X104166000Y-67938000D03*
X101666000Y-67938000D03*
D14*
X105700000Y-62100000D03*
D13*
X98080000Y-62100000D03*
D19*
X101092000Y-85852000D03*
D20*
X96012000Y-85852000D03*
D25*
X80518000Y-92710000D03*
D26*
X80518000Y-82550000D03*
D14*
X125700000Y-69350000D03*
D13*
X125700000Y-76970000D03*
D14*
X108000000Y-65100000D03*
D13*
X115620000Y-65100000D03*
D27*
X82000000Y-70950000D03*
D28*
X75700000Y-70950000D03*
D29*
X79100000Y-75750000D03*
D14*
X122174000Y-89360000D03*
D13*
X122174000Y-81740000D03*
D15*
X134350000Y-55375000D03*
D16*
X134350000Y-57915000D03*
D17*
X88700000Y-49291000D03*
D18*
X88700000Y-51831000D03*
X88700000Y-54371000D03*
D24*
X112450000Y-75375000D03*
X122050000Y-75375000D03*
D15*
X119750000Y-67875000D03*
D16*
X117250000Y-67875000D03*
X114750000Y-67875000D03*
D15*
X129750000Y-55375000D03*
D16*
X129750000Y-57915000D03*
D19*
X90424000Y-85850000D03*
D20*
X85344000Y-85850000D03*
D14*
X105700000Y-59100000D03*
D13*
X98080000Y-59100000D03*
D14*
X73660000Y-92964000D03*
D13*
X73660000Y-85344000D03*
D15*
X93980000Y-67569000D03*
D16*
X93980000Y-65029000D03*
D15*
X72550000Y-81026000D03*
D16*
X75090000Y-81026000D03*
X77630000Y-81026000D03*
D14*
X108000000Y-59100000D03*
D13*
X115620000Y-59100000D03*
D30*
X79930000Y-49350000D03*
X81200000Y-49350000D03*
D21*
X74850000Y-49350000D03*
X73600000Y-49350000D03*
D14*
X116078000Y-89360000D03*
D13*
X116078000Y-81740000D03*
D14*
X119126000Y-89360000D03*
D13*
X119126000Y-81740000D03*
D15*
X120550000Y-55375000D03*
D16*
X120550000Y-57915000D03*
D17*
X92300000Y-49291000D03*
D18*
X92300000Y-51831000D03*
X92300000Y-54371000D03*
D12*
X98400000Y-93000000D03*
D13*
X100940000Y-93000000D03*
X103480000Y-93000000D03*
X106020000Y-93000000D03*
X108560000Y-93000000D03*
X111100000Y-93000000D03*
X113640000Y-93000000D03*
X116180000Y-93000000D03*
X121260000Y-93000000D03*
X123800000Y-93000000D03*
X126340000Y-93000000D03*
X128880000Y-93000000D03*
X131420000Y-93000000D03*
X133960000Y-93000000D03*
X133960000Y-44740000D03*
X131420000Y-44740000D03*
X128880000Y-44740000D03*
X126340000Y-44740000D03*
X123800000Y-44740000D03*
X121260000Y-44740000D03*
X118720000Y-44740000D03*
X116180000Y-44740000D03*
X112120000Y-44740000D03*
X109580000Y-44740000D03*
X107040000Y-44740000D03*
X104500000Y-44740000D03*
X101960000Y-44740000D03*
X99420000Y-44740000D03*
X96880000Y-44740000D03*
X94340000Y-44740000D03*
X91800000Y-44740000D03*
X89260000Y-44740000D03*
M02*
