M48
; DRILL file {KiCad 6.0.9-8da3e8f707~116~ubuntu20.04.1} date ponedjeljak, 14. studenoga 2022. 11:54:30 CET
; FORMAT={-:-/ absolute / metric / decimal}
; #@! TF.CreationDate,2022-11-14T11:54:30+01:00
; #@! TF.GenerationSoftware,Kicad,Pcbnew,6.0.9-8da3e8f707~116~ubuntu20.04.1
; #@! TF.FileFunction,Plated,1,2,PTH
FMAT,2
METRIC
; #@! TA.AperFunction,Plated,PTH,ViaDrill
T1C0.400
; #@! TA.AperFunction,Plated,PTH,ComponentDrill
T2C0.800
; #@! TA.AperFunction,Plated,PTH,ComponentDrill
T3C0.900
; #@! TA.AperFunction,Plated,PTH,ComponentDrill
T4C0.950
; #@! TA.AperFunction,Plated,PTH,ComponentDrill
T5C1.000
; #@! TA.AperFunction,Plated,PTH,ComponentDrill
T6C1.100
; #@! TA.AperFunction,Plated,PTH,ComponentDrill
T7C1.500
; #@! TA.AperFunction,Plated,PTH,ComponentDrill
T8C1.520
%
G90
G05
T1
X122.936Y-55.372
T2
X73.66Y-85.344
X73.66Y-92.964
X76.708Y-85.344
X76.708Y-92.964
X85.09Y-68.112
X85.09Y-73.112
X85.09Y-75.478
X85.09Y-80.478
X88.392Y-71.872
X88.392Y-79.492
X90.932Y-71.872
X90.932Y-79.492
X93.472Y-71.872
X93.472Y-79.492
X95.6Y-49.3
X95.6Y-54.3
X96.012Y-71.872
X96.012Y-79.492
X98.08Y-59.1
X98.08Y-62.1
X98.08Y-65.1
X98.816Y-48.15
X98.816Y-55.77
X101.356Y-48.15
X101.356Y-55.77
X103.896Y-48.15
X103.896Y-55.77
X105.7Y-59.1
X105.7Y-62.1
X105.7Y-65.1
X106.436Y-48.15
X106.436Y-55.77
X108.0Y-59.1
X108.0Y-62.1
X108.0Y-65.1
X108.976Y-48.15
X108.976Y-55.77
X111.516Y-48.15
X111.516Y-55.77
X114.056Y-48.15
X114.056Y-55.77
X115.62Y-59.1
X115.62Y-62.1
X115.62Y-65.1
X116.078Y-81.74
X116.078Y-89.36
X116.596Y-48.15
X116.596Y-55.77
X118.08Y-62.1
X118.08Y-65.1
X119.126Y-81.74
X119.126Y-89.36
X122.174Y-81.74
X122.174Y-89.36
X125.7Y-62.1
X125.7Y-65.1
X125.7Y-69.35
X125.7Y-76.97
T3
X72.55Y-81.026
X75.09Y-81.026
X77.63Y-81.026
X89.408Y-57.409
X89.408Y-59.949
X89.408Y-65.024
X89.408Y-67.564
X93.98Y-57.409
X93.98Y-59.949
X93.98Y-65.029
X93.98Y-67.569
X120.55Y-55.375
X120.55Y-57.915
X125.15Y-55.375
X125.15Y-57.915
X129.75Y-55.375
X129.75Y-57.915
X134.35Y-55.375
X134.35Y-57.915
T4
X122.3Y-49.45
X124.8Y-49.45
X127.3Y-49.45
X129.8Y-49.45
X132.3Y-49.45
T5
X73.6Y-49.35
X74.85Y-49.35
X79.93Y-49.35
X81.2Y-49.35
X88.7Y-49.291
X88.7Y-51.831
X88.7Y-54.371
X89.26Y-44.74
X91.8Y-44.74
X92.3Y-49.291
X92.3Y-51.831
X92.3Y-54.371
X94.34Y-44.74
X96.88Y-44.74
X98.4Y-93.0
X99.42Y-44.74
X100.94Y-93.0
X101.666Y-67.938
X101.96Y-44.74
X103.48Y-93.0
X104.166Y-67.938
X104.5Y-44.74
X106.02Y-93.0
X106.666Y-67.938
X107.04Y-44.74
X108.56Y-93.0
X109.58Y-44.74
X111.1Y-93.0
X112.12Y-44.74
X113.64Y-93.0
X114.75Y-67.875
X116.18Y-44.74
X116.18Y-93.0
X117.25Y-67.875
X118.72Y-44.74
X119.75Y-67.875
X121.26Y-44.74
X121.26Y-93.0
X123.8Y-44.74
X123.8Y-93.0
X126.34Y-44.74
X126.34Y-93.0
X128.7Y-81.03
X128.7Y-83.57
X128.7Y-86.11
X128.7Y-88.65
X128.88Y-44.74
X128.88Y-93.0
X131.42Y-44.74
X131.42Y-93.0
X133.96Y-44.74
X133.96Y-93.0
T6
X80.518Y-82.55
X80.518Y-92.71
X84.328Y-55.932
X84.328Y-62.432
X129.25Y-64.25
X129.25Y-68.75
X129.25Y-72.05
X129.25Y-76.55
X135.75Y-64.25
X135.75Y-68.75
X135.75Y-72.05
X135.75Y-76.55
T8
X85.344Y-85.85
X90.424Y-85.85
X96.012Y-85.852
X101.092Y-85.852
X106.68Y-85.85
X111.76Y-85.85
T5
X75.7Y-69.85G85X75.7Y-72.05
G05
X80.2Y-75.75G85X78.0Y-75.75
G05
X82.0Y-69.65G85X82.0Y-72.25
G05
T7
X99.366Y-75.088G85X99.366Y-75.788
G05
X108.966Y-75.088G85X108.966Y-75.788
G05
X112.45Y-75.025G85X112.45Y-75.725
G05
X122.05Y-75.025G85X122.05Y-75.725
G05
T0
M30
