%TF.GenerationSoftware,KiCad,Pcbnew,6.0.9-8da3e8f707~116~ubuntu20.04.1*%
%TF.CreationDate,2022-11-14T11:53:29+01:00*%
%TF.ProjectId,shield_b,73686965-6c64-45f6-922e-6b696361645f,1.2*%
%TF.SameCoordinates,Original*%
%TF.FileFunction,Legend,Top*%
%TF.FilePolarity,Positive*%
%FSLAX46Y46*%
G04 Gerber Fmt 4.6, Leading zero omitted, Abs format (unit mm)*
G04 Created by KiCad (PCBNEW 6.0.9-8da3e8f707~116~ubuntu20.04.1) date 2022-11-14 11:53:29*
%MOMM*%
%LPD*%
G01*
G04 APERTURE LIST*
G04 Aperture macros list*
%AMRoundRect*
0 Rectangle with rounded corners*
0 $1 Rounding radius*
0 $2 $3 $4 $5 $6 $7 $8 $9 X,Y pos of 4 corners*
0 Add a 4 corners polygon primitive as box body*
4,1,4,$2,$3,$4,$5,$6,$7,$8,$9,$2,$3,0*
0 Add four circle primitives for the rounded corners*
1,1,$1+$1,$2,$3*
1,1,$1+$1,$4,$5*
1,1,$1+$1,$6,$7*
1,1,$1+$1,$8,$9*
0 Add four rect primitives between the rounded corners*
20,1,$1+$1,$2,$3,$4,$5,0*
20,1,$1+$1,$4,$5,$6,$7,0*
20,1,$1+$1,$6,$7,$8,$9,0*
20,1,$1+$1,$8,$9,$2,$3,0*%
G04 Aperture macros list end*
%ADD10C,0.600000*%
%ADD11C,0.300000*%
%ADD12C,0.150000*%
%ADD13C,0.120000*%
%ADD14C,0.010000*%
%ADD15R,1.600000X1.600000*%
%ADD16O,1.600000X1.600000*%
%ADD17C,1.600000*%
%ADD18R,1.800000X1.800000*%
%ADD19C,1.800000*%
%ADD20R,1.700000X1.700000*%
%ADD21O,1.700000X1.700000*%
%ADD22R,3.000000X3.000000*%
%ADD23C,3.000000*%
%ADD24C,2.000000*%
%ADD25RoundRect,0.250000X-0.600000X-0.725000X0.600000X-0.725000X0.600000X0.725000X-0.600000X0.725000X0*%
%ADD26O,1.700000X1.950000*%
%ADD27O,3.120000X3.640000*%
%ADD28R,2.200000X2.200000*%
%ADD29O,2.200000X2.200000*%
%ADD30R,2.000000X4.600000*%
%ADD31O,2.000000X4.200000*%
%ADD32O,4.200000X2.000000*%
%ADD33R,2.000000X2.000000*%
G04 APERTURE END LIST*
D10*
X117489421Y-45974000D02*
G75*
G03*
X117489421Y-45974000I-141421J0D01*
G01*
X88533421Y-81500000D02*
G75*
G03*
X88533421Y-81500000I-141421J0D01*
G01*
D11*
X99877714Y-91610571D02*
X99877714Y-90110571D01*
X100377714Y-91182000D01*
X100877714Y-90110571D01*
X100877714Y-91610571D01*
X102377714Y-91610571D02*
X101520571Y-91610571D01*
X101949142Y-91610571D02*
X101949142Y-90110571D01*
X101806285Y-90324857D01*
X101663428Y-90467714D01*
X101520571Y-90539142D01*
D12*
X124287976Y-81404761D02*
X124430833Y-81452380D01*
X124668928Y-81452380D01*
X124764166Y-81404761D01*
X124811785Y-81357142D01*
X124859404Y-81261904D01*
X124859404Y-81166666D01*
X124811785Y-81071428D01*
X124764166Y-81023809D01*
X124668928Y-80976190D01*
X124478452Y-80928571D01*
X124383214Y-80880952D01*
X124335595Y-80833333D01*
X124287976Y-80738095D01*
X124287976Y-80642857D01*
X124335595Y-80547619D01*
X124383214Y-80500000D01*
X124478452Y-80452380D01*
X124716547Y-80452380D01*
X124859404Y-80500000D01*
X125287976Y-81452380D02*
X125287976Y-80452380D01*
X125526071Y-80452380D01*
X125668928Y-80500000D01*
X125764166Y-80595238D01*
X125811785Y-80690476D01*
X125859404Y-80880952D01*
X125859404Y-81023809D01*
X125811785Y-81214285D01*
X125764166Y-81309523D01*
X125668928Y-81404761D01*
X125526071Y-81452380D01*
X125287976Y-81452380D01*
X126240357Y-81166666D02*
X126716547Y-81166666D01*
X126145119Y-81452380D02*
X126478452Y-80452380D01*
X126811785Y-81452380D01*
D13*
X81641904Y-58057904D02*
X81260952Y-58324571D01*
X81641904Y-58515047D02*
X80841904Y-58515047D01*
X80841904Y-58210285D01*
X80880000Y-58134095D01*
X80918095Y-58096000D01*
X80994285Y-58057904D01*
X81108571Y-58057904D01*
X81184761Y-58096000D01*
X81222857Y-58134095D01*
X81260952Y-58210285D01*
X81260952Y-58515047D01*
X81222857Y-57715047D02*
X81222857Y-57448380D01*
X81641904Y-57334095D02*
X81641904Y-57715047D01*
X80841904Y-57715047D01*
X80841904Y-57334095D01*
X81603809Y-57029333D02*
X81641904Y-56915047D01*
X81641904Y-56724571D01*
X81603809Y-56648380D01*
X81565714Y-56610285D01*
X81489523Y-56572190D01*
X81413333Y-56572190D01*
X81337142Y-56610285D01*
X81299047Y-56648380D01*
X81260952Y-56724571D01*
X81222857Y-56876952D01*
X81184761Y-56953142D01*
X81146666Y-56991238D01*
X81070476Y-57029333D01*
X80994285Y-57029333D01*
X80918095Y-56991238D01*
X80880000Y-56953142D01*
X80841904Y-56876952D01*
X80841904Y-56686476D01*
X80880000Y-56572190D01*
X81222857Y-56229333D02*
X81222857Y-55962666D01*
X81641904Y-55848380D02*
X81641904Y-56229333D01*
X80841904Y-56229333D01*
X80841904Y-55848380D01*
X80841904Y-55619809D02*
X80841904Y-55162666D01*
X81641904Y-55391238D02*
X80841904Y-55391238D01*
D11*
X86709428Y-91610571D02*
X86709428Y-90110571D01*
X87209428Y-91182000D01*
X87709428Y-90110571D01*
X87709428Y-91610571D01*
X88423714Y-91039142D02*
X89566571Y-91039142D01*
X88995142Y-91610571D02*
X88995142Y-90467714D01*
D12*
X84012738Y-51014380D02*
X84346071Y-52014380D01*
X84679404Y-51014380D01*
X85584166Y-51919142D02*
X85536547Y-51966761D01*
X85393690Y-52014380D01*
X85298452Y-52014380D01*
X85155595Y-51966761D01*
X85060357Y-51871523D01*
X85012738Y-51776285D01*
X84965119Y-51585809D01*
X84965119Y-51442952D01*
X85012738Y-51252476D01*
X85060357Y-51157238D01*
X85155595Y-51062000D01*
X85298452Y-51014380D01*
X85393690Y-51014380D01*
X85536547Y-51062000D01*
X85584166Y-51109619D01*
X86584166Y-51919142D02*
X86536547Y-51966761D01*
X86393690Y-52014380D01*
X86298452Y-52014380D01*
X86155595Y-51966761D01*
X86060357Y-51871523D01*
X86012738Y-51776285D01*
X85965119Y-51585809D01*
X85965119Y-51442952D01*
X86012738Y-51252476D01*
X86060357Y-51157238D01*
X86155595Y-51062000D01*
X86298452Y-51014380D01*
X86393690Y-51014380D01*
X86536547Y-51062000D01*
X86584166Y-51109619D01*
X71337976Y-60639761D02*
X71480833Y-60687380D01*
X71718928Y-60687380D01*
X71814166Y-60639761D01*
X71861785Y-60592142D01*
X71909404Y-60496904D01*
X71909404Y-60401666D01*
X71861785Y-60306428D01*
X71814166Y-60258809D01*
X71718928Y-60211190D01*
X71528452Y-60163571D01*
X71433214Y-60115952D01*
X71385595Y-60068333D01*
X71337976Y-59973095D01*
X71337976Y-59877857D01*
X71385595Y-59782619D01*
X71433214Y-59735000D01*
X71528452Y-59687380D01*
X71766547Y-59687380D01*
X71909404Y-59735000D01*
X72337976Y-60687380D02*
X72337976Y-59687380D01*
X72766547Y-60687380D02*
X72766547Y-60163571D01*
X72718928Y-60068333D01*
X72623690Y-60020714D01*
X72480833Y-60020714D01*
X72385595Y-60068333D01*
X72337976Y-60115952D01*
X73242738Y-60687380D02*
X73242738Y-60020714D01*
X73242738Y-59687380D02*
X73195119Y-59735000D01*
X73242738Y-59782619D01*
X73290357Y-59735000D01*
X73242738Y-59687380D01*
X73242738Y-59782619D01*
X74099880Y-60639761D02*
X74004642Y-60687380D01*
X73814166Y-60687380D01*
X73718928Y-60639761D01*
X73671309Y-60544523D01*
X73671309Y-60163571D01*
X73718928Y-60068333D01*
X73814166Y-60020714D01*
X74004642Y-60020714D01*
X74099880Y-60068333D01*
X74147500Y-60163571D01*
X74147500Y-60258809D01*
X73671309Y-60354047D01*
X74718928Y-60687380D02*
X74623690Y-60639761D01*
X74576071Y-60544523D01*
X74576071Y-59687380D01*
X75528452Y-60687380D02*
X75528452Y-59687380D01*
X75528452Y-60639761D02*
X75433214Y-60687380D01*
X75242738Y-60687380D01*
X75147500Y-60639761D01*
X75099880Y-60592142D01*
X75052261Y-60496904D01*
X75052261Y-60211190D01*
X75099880Y-60115952D01*
X75147500Y-60068333D01*
X75242738Y-60020714D01*
X75433214Y-60020714D01*
X75528452Y-60068333D01*
X76004642Y-60306428D02*
X76766547Y-60306428D01*
X77576071Y-60163571D02*
X77718928Y-60211190D01*
X77766547Y-60258809D01*
X77814166Y-60354047D01*
X77814166Y-60496904D01*
X77766547Y-60592142D01*
X77718928Y-60639761D01*
X77623690Y-60687380D01*
X77242738Y-60687380D01*
X77242738Y-59687380D01*
X77576071Y-59687380D01*
X77671309Y-59735000D01*
X77718928Y-59782619D01*
X77766547Y-59877857D01*
X77766547Y-59973095D01*
X77718928Y-60068333D01*
X77671309Y-60115952D01*
X77576071Y-60163571D01*
X77242738Y-60163571D01*
X78909404Y-60020714D02*
X79147500Y-60687380D01*
X79385595Y-60020714D01*
X80290357Y-60687380D02*
X79718928Y-60687380D01*
X80004642Y-60687380D02*
X80004642Y-59687380D01*
X79909404Y-59830238D01*
X79814166Y-59925476D01*
X79718928Y-59973095D01*
X80718928Y-60592142D02*
X80766547Y-60639761D01*
X80718928Y-60687380D01*
X80671309Y-60639761D01*
X80718928Y-60592142D01*
X80718928Y-60687380D01*
X81147500Y-59782619D02*
X81195119Y-59735000D01*
X81290357Y-59687380D01*
X81528452Y-59687380D01*
X81623690Y-59735000D01*
X81671309Y-59782619D01*
X81718928Y-59877857D01*
X81718928Y-59973095D01*
X81671309Y-60115952D01*
X81099880Y-60687380D01*
X81718928Y-60687380D01*
X71385595Y-62297380D02*
X71385595Y-61297380D01*
X71623690Y-61297380D01*
X71766547Y-61345000D01*
X71861785Y-61440238D01*
X71909404Y-61535476D01*
X71957023Y-61725952D01*
X71957023Y-61868809D01*
X71909404Y-62059285D01*
X71861785Y-62154523D01*
X71766547Y-62249761D01*
X71623690Y-62297380D01*
X71385595Y-62297380D01*
X72766547Y-62249761D02*
X72671309Y-62297380D01*
X72480833Y-62297380D01*
X72385595Y-62249761D01*
X72337976Y-62154523D01*
X72337976Y-61773571D01*
X72385595Y-61678333D01*
X72480833Y-61630714D01*
X72671309Y-61630714D01*
X72766547Y-61678333D01*
X72814166Y-61773571D01*
X72814166Y-61868809D01*
X72337976Y-61964047D01*
X73195119Y-62249761D02*
X73290357Y-62297380D01*
X73480833Y-62297380D01*
X73576071Y-62249761D01*
X73623690Y-62154523D01*
X73623690Y-62106904D01*
X73576071Y-62011666D01*
X73480833Y-61964047D01*
X73337976Y-61964047D01*
X73242738Y-61916428D01*
X73195119Y-61821190D01*
X73195119Y-61773571D01*
X73242738Y-61678333D01*
X73337976Y-61630714D01*
X73480833Y-61630714D01*
X73576071Y-61678333D01*
X74052261Y-62297380D02*
X74052261Y-61630714D01*
X74052261Y-61297380D02*
X74004642Y-61345000D01*
X74052261Y-61392619D01*
X74099880Y-61345000D01*
X74052261Y-61297380D01*
X74052261Y-61392619D01*
X74957023Y-61630714D02*
X74957023Y-62440238D01*
X74909404Y-62535476D01*
X74861785Y-62583095D01*
X74766547Y-62630714D01*
X74623690Y-62630714D01*
X74528452Y-62583095D01*
X74957023Y-62249761D02*
X74861785Y-62297380D01*
X74671309Y-62297380D01*
X74576071Y-62249761D01*
X74528452Y-62202142D01*
X74480833Y-62106904D01*
X74480833Y-61821190D01*
X74528452Y-61725952D01*
X74576071Y-61678333D01*
X74671309Y-61630714D01*
X74861785Y-61630714D01*
X74957023Y-61678333D01*
X75433214Y-61630714D02*
X75433214Y-62297380D01*
X75433214Y-61725952D02*
X75480833Y-61678333D01*
X75576071Y-61630714D01*
X75718928Y-61630714D01*
X75814166Y-61678333D01*
X75861785Y-61773571D01*
X75861785Y-62297380D01*
X76718928Y-62249761D02*
X76623690Y-62297380D01*
X76433214Y-62297380D01*
X76337976Y-62249761D01*
X76290357Y-62154523D01*
X76290357Y-61773571D01*
X76337976Y-61678333D01*
X76433214Y-61630714D01*
X76623690Y-61630714D01*
X76718928Y-61678333D01*
X76766547Y-61773571D01*
X76766547Y-61868809D01*
X76290357Y-61964047D01*
X77623690Y-62297380D02*
X77623690Y-61297380D01*
X77623690Y-62249761D02*
X77528452Y-62297380D01*
X77337976Y-62297380D01*
X77242738Y-62249761D01*
X77195119Y-62202142D01*
X77147500Y-62106904D01*
X77147500Y-61821190D01*
X77195119Y-61725952D01*
X77242738Y-61678333D01*
X77337976Y-61630714D01*
X77528452Y-61630714D01*
X77623690Y-61678333D01*
X78861785Y-62297380D02*
X78861785Y-61297380D01*
X78861785Y-61678333D02*
X78957023Y-61630714D01*
X79147500Y-61630714D01*
X79242738Y-61678333D01*
X79290357Y-61725952D01*
X79337976Y-61821190D01*
X79337976Y-62106904D01*
X79290357Y-62202142D01*
X79242738Y-62249761D01*
X79147500Y-62297380D01*
X78957023Y-62297380D01*
X78861785Y-62249761D01*
X79671309Y-61630714D02*
X79909404Y-62297380D01*
X80147500Y-61630714D02*
X79909404Y-62297380D01*
X79814166Y-62535476D01*
X79766547Y-62583095D01*
X79671309Y-62630714D01*
X71957023Y-63907380D02*
X71623690Y-63431190D01*
X71385595Y-63907380D02*
X71385595Y-62907380D01*
X71766547Y-62907380D01*
X71861785Y-62955000D01*
X71909404Y-63002619D01*
X71957023Y-63097857D01*
X71957023Y-63240714D01*
X71909404Y-63335952D01*
X71861785Y-63383571D01*
X71766547Y-63431190D01*
X71385595Y-63431190D01*
X72528452Y-63907380D02*
X72433214Y-63859761D01*
X72385595Y-63812142D01*
X72337976Y-63716904D01*
X72337976Y-63431190D01*
X72385595Y-63335952D01*
X72433214Y-63288333D01*
X72528452Y-63240714D01*
X72671309Y-63240714D01*
X72766547Y-63288333D01*
X72814166Y-63335952D01*
X72861785Y-63431190D01*
X72861785Y-63716904D01*
X72814166Y-63812142D01*
X72766547Y-63859761D01*
X72671309Y-63907380D01*
X72528452Y-63907380D01*
X73290357Y-63907380D02*
X73290357Y-62907380D01*
X73290357Y-63288333D02*
X73385595Y-63240714D01*
X73576071Y-63240714D01*
X73671309Y-63288333D01*
X73718928Y-63335952D01*
X73766547Y-63431190D01*
X73766547Y-63716904D01*
X73718928Y-63812142D01*
X73671309Y-63859761D01*
X73576071Y-63907380D01*
X73385595Y-63907380D01*
X73290357Y-63859761D01*
X74576071Y-63859761D02*
X74480833Y-63907380D01*
X74290357Y-63907380D01*
X74195119Y-63859761D01*
X74147500Y-63764523D01*
X74147500Y-63383571D01*
X74195119Y-63288333D01*
X74290357Y-63240714D01*
X74480833Y-63240714D01*
X74576071Y-63288333D01*
X74623690Y-63383571D01*
X74623690Y-63478809D01*
X74147500Y-63574047D01*
X75052261Y-63907380D02*
X75052261Y-63240714D01*
X75052261Y-63431190D02*
X75099880Y-63335952D01*
X75147500Y-63288333D01*
X75242738Y-63240714D01*
X75337976Y-63240714D01*
X75528452Y-63240714D02*
X75909404Y-63240714D01*
X75671309Y-62907380D02*
X75671309Y-63764523D01*
X75718928Y-63859761D01*
X75814166Y-63907380D01*
X75909404Y-63907380D01*
X76957023Y-63859761D02*
X77099880Y-63907380D01*
X77337976Y-63907380D01*
X77433214Y-63859761D01*
X77480833Y-63812142D01*
X77528452Y-63716904D01*
X77528452Y-63621666D01*
X77480833Y-63526428D01*
X77433214Y-63478809D01*
X77337976Y-63431190D01*
X77147500Y-63383571D01*
X77052261Y-63335952D01*
X77004642Y-63288333D01*
X76957023Y-63193095D01*
X76957023Y-63097857D01*
X77004642Y-63002619D01*
X77052261Y-62955000D01*
X77147500Y-62907380D01*
X77385595Y-62907380D01*
X77528452Y-62955000D01*
X78337976Y-63859761D02*
X78242738Y-63907380D01*
X78052261Y-63907380D01*
X77957023Y-63859761D01*
X77909404Y-63764523D01*
X77909404Y-63383571D01*
X77957023Y-63288333D01*
X78052261Y-63240714D01*
X78242738Y-63240714D01*
X78337976Y-63288333D01*
X78385595Y-63383571D01*
X78385595Y-63478809D01*
X77909404Y-63574047D01*
X79242738Y-63907380D02*
X79242738Y-62907380D01*
X79242738Y-63859761D02*
X79147500Y-63907380D01*
X78957023Y-63907380D01*
X78861785Y-63859761D01*
X78814166Y-63812142D01*
X78766547Y-63716904D01*
X78766547Y-63431190D01*
X78814166Y-63335952D01*
X78861785Y-63288333D01*
X78957023Y-63240714D01*
X79147500Y-63240714D01*
X79242738Y-63288333D01*
X80147500Y-63907380D02*
X80147500Y-63383571D01*
X80099880Y-63288333D01*
X80004642Y-63240714D01*
X79814166Y-63240714D01*
X79718928Y-63288333D01*
X80147500Y-63859761D02*
X80052261Y-63907380D01*
X79814166Y-63907380D01*
X79718928Y-63859761D01*
X79671309Y-63764523D01*
X79671309Y-63669285D01*
X79718928Y-63574047D01*
X79814166Y-63526428D01*
X80052261Y-63526428D01*
X80147500Y-63478809D01*
X80623690Y-63907380D02*
X80623690Y-62907380D01*
X80718928Y-63526428D02*
X81004642Y-63907380D01*
X81004642Y-63240714D02*
X80623690Y-63621666D01*
X71242738Y-64517380D02*
X71576071Y-65517380D01*
X71909404Y-64517380D01*
X72385595Y-65517380D02*
X72290357Y-65469761D01*
X72242738Y-65374523D01*
X72242738Y-64517380D01*
X73195119Y-65517380D02*
X73195119Y-64993571D01*
X73147500Y-64898333D01*
X73052261Y-64850714D01*
X72861785Y-64850714D01*
X72766547Y-64898333D01*
X73195119Y-65469761D02*
X73099880Y-65517380D01*
X72861785Y-65517380D01*
X72766547Y-65469761D01*
X72718928Y-65374523D01*
X72718928Y-65279285D01*
X72766547Y-65184047D01*
X72861785Y-65136428D01*
X73099880Y-65136428D01*
X73195119Y-65088809D01*
X74099880Y-65517380D02*
X74099880Y-64517380D01*
X74099880Y-65469761D02*
X74004642Y-65517380D01*
X73814166Y-65517380D01*
X73718928Y-65469761D01*
X73671309Y-65422142D01*
X73623690Y-65326904D01*
X73623690Y-65041190D01*
X73671309Y-64945952D01*
X73718928Y-64898333D01*
X73814166Y-64850714D01*
X74004642Y-64850714D01*
X74099880Y-64898333D01*
X74576071Y-65517380D02*
X74576071Y-64850714D01*
X74576071Y-64517380D02*
X74528452Y-64565000D01*
X74576071Y-64612619D01*
X74623690Y-64565000D01*
X74576071Y-64517380D01*
X74576071Y-64612619D01*
X75052261Y-65517380D02*
X75052261Y-64850714D01*
X75052261Y-64945952D02*
X75099880Y-64898333D01*
X75195119Y-64850714D01*
X75337976Y-64850714D01*
X75433214Y-64898333D01*
X75480833Y-64993571D01*
X75480833Y-65517380D01*
X75480833Y-64993571D02*
X75528452Y-64898333D01*
X75623690Y-64850714D01*
X75766547Y-64850714D01*
X75861785Y-64898333D01*
X75909404Y-64993571D01*
X75909404Y-65517380D01*
X76385595Y-65517380D02*
X76385595Y-64850714D01*
X76385595Y-64517380D02*
X76337976Y-64565000D01*
X76385595Y-64612619D01*
X76433214Y-64565000D01*
X76385595Y-64517380D01*
X76385595Y-64612619D01*
X76861785Y-65517380D02*
X76861785Y-64850714D01*
X76861785Y-65041190D02*
X76909404Y-64945952D01*
X76957023Y-64898333D01*
X77052261Y-64850714D01*
X77147500Y-64850714D01*
X78242738Y-65517380D02*
X78242738Y-64517380D01*
X78576071Y-65231666D01*
X78909404Y-64517380D01*
X78909404Y-65517380D01*
X79385595Y-65517380D02*
X79385595Y-64850714D01*
X79385595Y-64517380D02*
X79337976Y-64565000D01*
X79385595Y-64612619D01*
X79433214Y-64565000D01*
X79385595Y-64517380D01*
X79385595Y-64612619D01*
X79718928Y-64850714D02*
X80099880Y-64850714D01*
X79861785Y-64517380D02*
X79861785Y-65374523D01*
X79909404Y-65469761D01*
X80004642Y-65517380D01*
X80099880Y-65517380D01*
X80433214Y-65517380D02*
X80433214Y-64850714D01*
X80433214Y-65041190D02*
X80480833Y-64945952D01*
X80528452Y-64898333D01*
X80623690Y-64850714D01*
X80718928Y-64850714D01*
X81195119Y-65517380D02*
X81099880Y-65469761D01*
X81052261Y-65422142D01*
X81004642Y-65326904D01*
X81004642Y-65041190D01*
X81052261Y-64945952D01*
X81099880Y-64898333D01*
X81195119Y-64850714D01*
X81337976Y-64850714D01*
X81433214Y-64898333D01*
X81480833Y-64945952D01*
X81528452Y-65041190D01*
X81528452Y-65326904D01*
X81480833Y-65422142D01*
X81433214Y-65469761D01*
X81337976Y-65517380D01*
X81195119Y-65517380D01*
X81861785Y-64850714D02*
X82099880Y-65517380D01*
X82337976Y-64850714D01*
X82718928Y-65517380D02*
X82718928Y-64850714D01*
X82718928Y-64517380D02*
X82671309Y-64565000D01*
X82718928Y-64612619D01*
X82766547Y-64565000D01*
X82718928Y-64517380D01*
X82718928Y-64612619D01*
X83623690Y-65469761D02*
X83528452Y-65517380D01*
X83337976Y-65517380D01*
X83242738Y-65469761D01*
X83195119Y-65422142D01*
X83147500Y-65326904D01*
X83147500Y-65041190D01*
X83195119Y-64945952D01*
X83242738Y-64898333D01*
X83337976Y-64850714D01*
X83528452Y-64850714D01*
X83623690Y-64898333D01*
X83528452Y-64469761D02*
X83385595Y-64612619D01*
X124287976Y-84004761D02*
X124430833Y-84052380D01*
X124668928Y-84052380D01*
X124764166Y-84004761D01*
X124811785Y-83957142D01*
X124859404Y-83861904D01*
X124859404Y-83766666D01*
X124811785Y-83671428D01*
X124764166Y-83623809D01*
X124668928Y-83576190D01*
X124478452Y-83528571D01*
X124383214Y-83480952D01*
X124335595Y-83433333D01*
X124287976Y-83338095D01*
X124287976Y-83242857D01*
X124335595Y-83147619D01*
X124383214Y-83100000D01*
X124478452Y-83052380D01*
X124716547Y-83052380D01*
X124859404Y-83100000D01*
X125859404Y-83957142D02*
X125811785Y-84004761D01*
X125668928Y-84052380D01*
X125573690Y-84052380D01*
X125430833Y-84004761D01*
X125335595Y-83909523D01*
X125287976Y-83814285D01*
X125240357Y-83623809D01*
X125240357Y-83480952D01*
X125287976Y-83290476D01*
X125335595Y-83195238D01*
X125430833Y-83100000D01*
X125573690Y-83052380D01*
X125668928Y-83052380D01*
X125811785Y-83100000D01*
X125859404Y-83147619D01*
X126764166Y-84052380D02*
X126287976Y-84052380D01*
X126287976Y-83052380D01*
X82138190Y-93924380D02*
X82138190Y-92924380D01*
X82376285Y-92924380D01*
X82519142Y-92972000D01*
X82614380Y-93067238D01*
X82662000Y-93162476D01*
X82709619Y-93352952D01*
X82709619Y-93495809D01*
X82662000Y-93686285D01*
X82614380Y-93781523D01*
X82519142Y-93876761D01*
X82376285Y-93924380D01*
X82138190Y-93924380D01*
X83519142Y-93876761D02*
X83423904Y-93924380D01*
X83233428Y-93924380D01*
X83138190Y-93876761D01*
X83090571Y-93781523D01*
X83090571Y-93400571D01*
X83138190Y-93305333D01*
X83233428Y-93257714D01*
X83423904Y-93257714D01*
X83519142Y-93305333D01*
X83566761Y-93400571D01*
X83566761Y-93495809D01*
X83090571Y-93591047D01*
X83947714Y-93876761D02*
X84042952Y-93924380D01*
X84233428Y-93924380D01*
X84328666Y-93876761D01*
X84376285Y-93781523D01*
X84376285Y-93733904D01*
X84328666Y-93638666D01*
X84233428Y-93591047D01*
X84090571Y-93591047D01*
X83995333Y-93543428D01*
X83947714Y-93448190D01*
X83947714Y-93400571D01*
X83995333Y-93305333D01*
X84090571Y-93257714D01*
X84233428Y-93257714D01*
X84328666Y-93305333D01*
X84804857Y-93924380D02*
X84804857Y-93257714D01*
X84804857Y-92924380D02*
X84757238Y-92972000D01*
X84804857Y-93019619D01*
X84852476Y-92972000D01*
X84804857Y-92924380D01*
X84804857Y-93019619D01*
X85709619Y-93257714D02*
X85709619Y-94067238D01*
X85662000Y-94162476D01*
X85614380Y-94210095D01*
X85519142Y-94257714D01*
X85376285Y-94257714D01*
X85281047Y-94210095D01*
X85709619Y-93876761D02*
X85614380Y-93924380D01*
X85423904Y-93924380D01*
X85328666Y-93876761D01*
X85281047Y-93829142D01*
X85233428Y-93733904D01*
X85233428Y-93448190D01*
X85281047Y-93352952D01*
X85328666Y-93305333D01*
X85423904Y-93257714D01*
X85614380Y-93257714D01*
X85709619Y-93305333D01*
X86185809Y-93257714D02*
X86185809Y-93924380D01*
X86185809Y-93352952D02*
X86233428Y-93305333D01*
X86328666Y-93257714D01*
X86471523Y-93257714D01*
X86566761Y-93305333D01*
X86614380Y-93400571D01*
X86614380Y-93924380D01*
X87471523Y-93876761D02*
X87376285Y-93924380D01*
X87185809Y-93924380D01*
X87090571Y-93876761D01*
X87042952Y-93781523D01*
X87042952Y-93400571D01*
X87090571Y-93305333D01*
X87185809Y-93257714D01*
X87376285Y-93257714D01*
X87471523Y-93305333D01*
X87519142Y-93400571D01*
X87519142Y-93495809D01*
X87042952Y-93591047D01*
X88376285Y-93924380D02*
X88376285Y-92924380D01*
X88376285Y-93876761D02*
X88281047Y-93924380D01*
X88090571Y-93924380D01*
X87995333Y-93876761D01*
X87947714Y-93829142D01*
X87900095Y-93733904D01*
X87900095Y-93448190D01*
X87947714Y-93352952D01*
X87995333Y-93305333D01*
X88090571Y-93257714D01*
X88281047Y-93257714D01*
X88376285Y-93305333D01*
X89519142Y-93257714D02*
X89709619Y-93924380D01*
X89900095Y-93448190D01*
X90090571Y-93924380D01*
X90281047Y-93257714D01*
X90662000Y-93924380D02*
X90662000Y-93257714D01*
X90662000Y-92924380D02*
X90614380Y-92972000D01*
X90662000Y-93019619D01*
X90709619Y-92972000D01*
X90662000Y-92924380D01*
X90662000Y-93019619D01*
X90995333Y-93257714D02*
X91376285Y-93257714D01*
X91138190Y-92924380D02*
X91138190Y-93781523D01*
X91185809Y-93876761D01*
X91281047Y-93924380D01*
X91376285Y-93924380D01*
X91709619Y-93924380D02*
X91709619Y-92924380D01*
X92138190Y-93924380D02*
X92138190Y-93400571D01*
X92090571Y-93305333D01*
X91995333Y-93257714D01*
X91852476Y-93257714D01*
X91757238Y-93305333D01*
X91709619Y-93352952D01*
X93376285Y-93924380D02*
X93376285Y-92924380D01*
X93947714Y-93924380D02*
X93519142Y-93352952D01*
X93947714Y-92924380D02*
X93376285Y-93495809D01*
X94376285Y-93924380D02*
X94376285Y-93257714D01*
X94376285Y-92924380D02*
X94328666Y-92972000D01*
X94376285Y-93019619D01*
X94423904Y-92972000D01*
X94376285Y-92924380D01*
X94376285Y-93019619D01*
X95423904Y-93829142D02*
X95376285Y-93876761D01*
X95233428Y-93924380D01*
X95138190Y-93924380D01*
X94995333Y-93876761D01*
X94900095Y-93781523D01*
X94852476Y-93686285D01*
X94804857Y-93495809D01*
X94804857Y-93352952D01*
X94852476Y-93162476D01*
X94900095Y-93067238D01*
X94995333Y-92972000D01*
X95138190Y-92924380D01*
X95233428Y-92924380D01*
X95376285Y-92972000D01*
X95423904Y-93019619D01*
X96281047Y-93924380D02*
X96281047Y-93400571D01*
X96233428Y-93305333D01*
X96138190Y-93257714D01*
X95947714Y-93257714D01*
X95852476Y-93305333D01*
X96281047Y-93876761D02*
X96185809Y-93924380D01*
X95947714Y-93924380D01*
X95852476Y-93876761D01*
X95804857Y-93781523D01*
X95804857Y-93686285D01*
X95852476Y-93591047D01*
X95947714Y-93543428D01*
X96185809Y-93543428D01*
X96281047Y-93495809D01*
X97185809Y-93924380D02*
X97185809Y-92924380D01*
X97185809Y-93876761D02*
X97090571Y-93924380D01*
X96900095Y-93924380D01*
X96804857Y-93876761D01*
X96757238Y-93829142D01*
X96709619Y-93733904D01*
X96709619Y-93448190D01*
X96757238Y-93352952D01*
X96804857Y-93305333D01*
X96900095Y-93257714D01*
X97090571Y-93257714D01*
X97185809Y-93305333D01*
D11*
X107537428Y-91610571D02*
X107537428Y-90110571D01*
X108037428Y-91182000D01*
X108537428Y-90110571D01*
X108537428Y-91610571D01*
X109251714Y-91039142D02*
X110394571Y-91039142D01*
X95051714Y-91610571D02*
X95051714Y-90110571D01*
X95551714Y-91182000D01*
X96051714Y-90110571D01*
X96051714Y-91610571D01*
X96694571Y-90253428D02*
X96766000Y-90182000D01*
X96908857Y-90110571D01*
X97266000Y-90110571D01*
X97408857Y-90182000D01*
X97480285Y-90253428D01*
X97551714Y-90396285D01*
X97551714Y-90539142D01*
X97480285Y-90753428D01*
X96623142Y-91610571D01*
X97551714Y-91610571D01*
D12*
X124192738Y-88252380D02*
X124526071Y-89252380D01*
X124859404Y-88252380D01*
X125764166Y-89157142D02*
X125716547Y-89204761D01*
X125573690Y-89252380D01*
X125478452Y-89252380D01*
X125335595Y-89204761D01*
X125240357Y-89109523D01*
X125192738Y-89014285D01*
X125145119Y-88823809D01*
X125145119Y-88680952D01*
X125192738Y-88490476D01*
X125240357Y-88395238D01*
X125335595Y-88300000D01*
X125478452Y-88252380D01*
X125573690Y-88252380D01*
X125716547Y-88300000D01*
X125764166Y-88347619D01*
X126764166Y-89157142D02*
X126716547Y-89204761D01*
X126573690Y-89252380D01*
X126478452Y-89252380D01*
X126335595Y-89204761D01*
X126240357Y-89109523D01*
X126192738Y-89014285D01*
X126145119Y-88823809D01*
X126145119Y-88680952D01*
X126192738Y-88490476D01*
X126240357Y-88395238D01*
X126335595Y-88300000D01*
X126478452Y-88252380D01*
X126573690Y-88252380D01*
X126716547Y-88300000D01*
X126764166Y-88347619D01*
X84679404Y-53114000D02*
X84584166Y-53066380D01*
X84441309Y-53066380D01*
X84298452Y-53114000D01*
X84203214Y-53209238D01*
X84155595Y-53304476D01*
X84107976Y-53494952D01*
X84107976Y-53637809D01*
X84155595Y-53828285D01*
X84203214Y-53923523D01*
X84298452Y-54018761D01*
X84441309Y-54066380D01*
X84536547Y-54066380D01*
X84679404Y-54018761D01*
X84727023Y-53971142D01*
X84727023Y-53637809D01*
X84536547Y-53637809D01*
X85155595Y-54066380D02*
X85155595Y-53066380D01*
X85727023Y-54066380D01*
X85727023Y-53066380D01*
X86203214Y-54066380D02*
X86203214Y-53066380D01*
X86441309Y-53066380D01*
X86584166Y-53114000D01*
X86679404Y-53209238D01*
X86727023Y-53304476D01*
X86774642Y-53494952D01*
X86774642Y-53637809D01*
X86727023Y-53828285D01*
X86679404Y-53923523D01*
X86584166Y-54018761D01*
X86441309Y-54066380D01*
X86203214Y-54066380D01*
X124859404Y-85700000D02*
X124764166Y-85652380D01*
X124621309Y-85652380D01*
X124478452Y-85700000D01*
X124383214Y-85795238D01*
X124335595Y-85890476D01*
X124287976Y-86080952D01*
X124287976Y-86223809D01*
X124335595Y-86414285D01*
X124383214Y-86509523D01*
X124478452Y-86604761D01*
X124621309Y-86652380D01*
X124716547Y-86652380D01*
X124859404Y-86604761D01*
X124907023Y-86557142D01*
X124907023Y-86223809D01*
X124716547Y-86223809D01*
X125335595Y-86652380D02*
X125335595Y-85652380D01*
X125907023Y-86652380D01*
X125907023Y-85652380D01*
X126383214Y-86652380D02*
X126383214Y-85652380D01*
X126621309Y-85652380D01*
X126764166Y-85700000D01*
X126859404Y-85795238D01*
X126907023Y-85890476D01*
X126954642Y-86080952D01*
X126954642Y-86223809D01*
X126907023Y-86414285D01*
X126859404Y-86509523D01*
X126764166Y-86604761D01*
X126621309Y-86652380D01*
X126383214Y-86652380D01*
X84107976Y-49680761D02*
X84250833Y-49728380D01*
X84488928Y-49728380D01*
X84584166Y-49680761D01*
X84631785Y-49633142D01*
X84679404Y-49537904D01*
X84679404Y-49442666D01*
X84631785Y-49347428D01*
X84584166Y-49299809D01*
X84488928Y-49252190D01*
X84298452Y-49204571D01*
X84203214Y-49156952D01*
X84155595Y-49109333D01*
X84107976Y-49014095D01*
X84107976Y-48918857D01*
X84155595Y-48823619D01*
X84203214Y-48776000D01*
X84298452Y-48728380D01*
X84536547Y-48728380D01*
X84679404Y-48776000D01*
X85107976Y-49728380D02*
X85107976Y-48728380D01*
X86107976Y-48776000D02*
X86012738Y-48728380D01*
X85869880Y-48728380D01*
X85727023Y-48776000D01*
X85631785Y-48871238D01*
X85584166Y-48966476D01*
X85536547Y-49156952D01*
X85536547Y-49299809D01*
X85584166Y-49490285D01*
X85631785Y-49585523D01*
X85727023Y-49680761D01*
X85869880Y-49728380D01*
X85965119Y-49728380D01*
X86107976Y-49680761D01*
X86155595Y-49633142D01*
X86155595Y-49299809D01*
X85965119Y-49299809D01*
X91644380Y-76453904D02*
X92453904Y-76453904D01*
X92549142Y-76406285D01*
X92596761Y-76358666D01*
X92644380Y-76263428D01*
X92644380Y-76072952D01*
X92596761Y-75977714D01*
X92549142Y-75930095D01*
X92453904Y-75882476D01*
X91644380Y-75882476D01*
X92644380Y-74882476D02*
X92644380Y-75453904D01*
X92644380Y-75168190D02*
X91644380Y-75168190D01*
X91787238Y-75263428D01*
X91882476Y-75358666D01*
X91930095Y-75453904D01*
X111643333Y-62552380D02*
X111310000Y-62076190D01*
X111071904Y-62552380D02*
X111071904Y-61552380D01*
X111452857Y-61552380D01*
X111548095Y-61600000D01*
X111595714Y-61647619D01*
X111643333Y-61742857D01*
X111643333Y-61885714D01*
X111595714Y-61980952D01*
X111548095Y-62028571D01*
X111452857Y-62076190D01*
X111071904Y-62076190D01*
X112500476Y-61885714D02*
X112500476Y-62552380D01*
X112262380Y-61504761D02*
X112024285Y-62219047D01*
X112643333Y-62219047D01*
X109922380Y-52761904D02*
X110731904Y-52761904D01*
X110827142Y-52714285D01*
X110874761Y-52666666D01*
X110922380Y-52571428D01*
X110922380Y-52380952D01*
X110874761Y-52285714D01*
X110827142Y-52238095D01*
X110731904Y-52190476D01*
X109922380Y-52190476D01*
X110017619Y-51761904D02*
X109970000Y-51714285D01*
X109922380Y-51619047D01*
X109922380Y-51380952D01*
X109970000Y-51285714D01*
X110017619Y-51238095D01*
X110112857Y-51190476D01*
X110208095Y-51190476D01*
X110350952Y-51238095D01*
X110922380Y-51809523D01*
X110922380Y-51190476D01*
X124411904Y-60352380D02*
X124411904Y-59352380D01*
X124650000Y-59352380D01*
X124792857Y-59400000D01*
X124888095Y-59495238D01*
X124935714Y-59590476D01*
X124983333Y-59780952D01*
X124983333Y-59923809D01*
X124935714Y-60114285D01*
X124888095Y-60209523D01*
X124792857Y-60304761D01*
X124650000Y-60352380D01*
X124411904Y-60352380D01*
X125888095Y-59352380D02*
X125411904Y-59352380D01*
X125364285Y-59828571D01*
X125411904Y-59780952D01*
X125507142Y-59733333D01*
X125745238Y-59733333D01*
X125840476Y-59780952D01*
X125888095Y-59828571D01*
X125935714Y-59923809D01*
X125935714Y-60161904D01*
X125888095Y-60257142D01*
X125840476Y-60304761D01*
X125745238Y-60352380D01*
X125507142Y-60352380D01*
X125411904Y-60304761D01*
X125364285Y-60257142D01*
X135666666Y-90802380D02*
X135666666Y-91516666D01*
X135619047Y-91659523D01*
X135523809Y-91754761D01*
X135380952Y-91802380D01*
X135285714Y-91802380D01*
X136047619Y-90802380D02*
X136714285Y-90802380D01*
X136285714Y-91802380D01*
X101723333Y-65552380D02*
X101390000Y-65076190D01*
X101151904Y-65552380D02*
X101151904Y-64552380D01*
X101532857Y-64552380D01*
X101628095Y-64600000D01*
X101675714Y-64647619D01*
X101723333Y-64742857D01*
X101723333Y-64885714D01*
X101675714Y-64980952D01*
X101628095Y-65028571D01*
X101532857Y-65076190D01*
X101151904Y-65076190D01*
X102056666Y-64552380D02*
X102675714Y-64552380D01*
X102342380Y-64933333D01*
X102485238Y-64933333D01*
X102580476Y-64980952D01*
X102628095Y-65028571D01*
X102675714Y-65123809D01*
X102675714Y-65361904D01*
X102628095Y-65457142D01*
X102580476Y-65504761D01*
X102485238Y-65552380D01*
X102199523Y-65552380D01*
X102104285Y-65504761D01*
X102056666Y-65457142D01*
X93241904Y-62428380D02*
X93241904Y-61428380D01*
X93480000Y-61428380D01*
X93622857Y-61476000D01*
X93718095Y-61571238D01*
X93765714Y-61666476D01*
X93813333Y-61856952D01*
X93813333Y-61999809D01*
X93765714Y-62190285D01*
X93718095Y-62285523D01*
X93622857Y-62380761D01*
X93480000Y-62428380D01*
X93241904Y-62428380D01*
X94384761Y-61856952D02*
X94289523Y-61809333D01*
X94241904Y-61761714D01*
X94194285Y-61666476D01*
X94194285Y-61618857D01*
X94241904Y-61523619D01*
X94289523Y-61476000D01*
X94384761Y-61428380D01*
X94575238Y-61428380D01*
X94670476Y-61476000D01*
X94718095Y-61523619D01*
X94765714Y-61618857D01*
X94765714Y-61666476D01*
X94718095Y-61761714D01*
X94670476Y-61809333D01*
X94575238Y-61856952D01*
X94384761Y-61856952D01*
X94289523Y-61904571D01*
X94241904Y-61952190D01*
X94194285Y-62047428D01*
X94194285Y-62237904D01*
X94241904Y-62333142D01*
X94289523Y-62380761D01*
X94384761Y-62428380D01*
X94575238Y-62428380D01*
X94670476Y-62380761D01*
X94718095Y-62333142D01*
X94765714Y-62237904D01*
X94765714Y-62047428D01*
X94718095Y-61952190D01*
X94670476Y-61904571D01*
X94575238Y-61856952D01*
X121723333Y-65552380D02*
X121390000Y-65076190D01*
X121151904Y-65552380D02*
X121151904Y-64552380D01*
X121532857Y-64552380D01*
X121628095Y-64600000D01*
X121675714Y-64647619D01*
X121723333Y-64742857D01*
X121723333Y-64885714D01*
X121675714Y-64980952D01*
X121628095Y-65028571D01*
X121532857Y-65076190D01*
X121151904Y-65076190D01*
X122056666Y-64552380D02*
X122723333Y-64552380D01*
X122294761Y-65552380D01*
X88619904Y-69876380D02*
X88619904Y-68876380D01*
X88858000Y-68876380D01*
X89000857Y-68924000D01*
X89096095Y-69019238D01*
X89143714Y-69114476D01*
X89191333Y-69304952D01*
X89191333Y-69447809D01*
X89143714Y-69638285D01*
X89096095Y-69733523D01*
X89000857Y-69828761D01*
X88858000Y-69876380D01*
X88619904Y-69876380D01*
X89572285Y-68971619D02*
X89619904Y-68924000D01*
X89715142Y-68876380D01*
X89953238Y-68876380D01*
X90048476Y-68924000D01*
X90096095Y-68971619D01*
X90143714Y-69066857D01*
X90143714Y-69162095D01*
X90096095Y-69304952D01*
X89524666Y-69876380D01*
X90143714Y-69876380D01*
X88193714Y-62428380D02*
X88193714Y-61428380D01*
X88431809Y-61428380D01*
X88574666Y-61476000D01*
X88669904Y-61571238D01*
X88717523Y-61666476D01*
X88765142Y-61856952D01*
X88765142Y-61999809D01*
X88717523Y-62190285D01*
X88669904Y-62285523D01*
X88574666Y-62380761D01*
X88431809Y-62428380D01*
X88193714Y-62428380D01*
X89717523Y-62428380D02*
X89146095Y-62428380D01*
X89431809Y-62428380D02*
X89431809Y-61428380D01*
X89336571Y-61571238D01*
X89241333Y-61666476D01*
X89146095Y-61714095D01*
X90336571Y-61428380D02*
X90431809Y-61428380D01*
X90527047Y-61476000D01*
X90574666Y-61523619D01*
X90622285Y-61618857D01*
X90669904Y-61809333D01*
X90669904Y-62047428D01*
X90622285Y-62237904D01*
X90574666Y-62333142D01*
X90527047Y-62380761D01*
X90431809Y-62428380D01*
X90336571Y-62428380D01*
X90241333Y-62380761D01*
X90193714Y-62333142D01*
X90146095Y-62237904D01*
X90098476Y-62047428D01*
X90098476Y-61809333D01*
X90146095Y-61618857D01*
X90193714Y-61523619D01*
X90241333Y-61476000D01*
X90336571Y-61428380D01*
X121723333Y-62552380D02*
X121390000Y-62076190D01*
X121151904Y-62552380D02*
X121151904Y-61552380D01*
X121532857Y-61552380D01*
X121628095Y-61600000D01*
X121675714Y-61647619D01*
X121723333Y-61742857D01*
X121723333Y-61885714D01*
X121675714Y-61980952D01*
X121628095Y-62028571D01*
X121532857Y-62076190D01*
X121151904Y-62076190D01*
X122580476Y-61552380D02*
X122390000Y-61552380D01*
X122294761Y-61600000D01*
X122247142Y-61647619D01*
X122151904Y-61790476D01*
X122104285Y-61980952D01*
X122104285Y-62361904D01*
X122151904Y-62457142D01*
X122199523Y-62504761D01*
X122294761Y-62552380D01*
X122485238Y-62552380D01*
X122580476Y-62504761D01*
X122628095Y-62457142D01*
X122675714Y-62361904D01*
X122675714Y-62123809D01*
X122628095Y-62028571D01*
X122580476Y-61980952D01*
X122485238Y-61933333D01*
X122294761Y-61933333D01*
X122199523Y-61980952D01*
X122151904Y-62028571D01*
X122104285Y-62123809D01*
X108886666Y-85302380D02*
X108886666Y-86016666D01*
X108839047Y-86159523D01*
X108743809Y-86254761D01*
X108600952Y-86302380D01*
X108505714Y-86302380D01*
X109791428Y-85635714D02*
X109791428Y-86302380D01*
X109553333Y-85254761D02*
X109315238Y-85969047D01*
X109934285Y-85969047D01*
X82994666Y-59332761D02*
X83137523Y-59380380D01*
X83375619Y-59380380D01*
X83470857Y-59332761D01*
X83518476Y-59285142D01*
X83566095Y-59189904D01*
X83566095Y-59094666D01*
X83518476Y-58999428D01*
X83470857Y-58951809D01*
X83375619Y-58904190D01*
X83185142Y-58856571D01*
X83089904Y-58808952D01*
X83042285Y-58761333D01*
X82994666Y-58666095D01*
X82994666Y-58570857D01*
X83042285Y-58475619D01*
X83089904Y-58428000D01*
X83185142Y-58380380D01*
X83423238Y-58380380D01*
X83566095Y-58428000D01*
X83899428Y-58380380D02*
X84137523Y-59380380D01*
X84328000Y-58666095D01*
X84518476Y-59380380D01*
X84756571Y-58380380D01*
X85661333Y-59380380D02*
X85089904Y-59380380D01*
X85375619Y-59380380D02*
X85375619Y-58380380D01*
X85280380Y-58523238D01*
X85185142Y-58618476D01*
X85089904Y-58666095D01*
X135048666Y-45680380D02*
X135048666Y-46394666D01*
X135001047Y-46537523D01*
X134905809Y-46632761D01*
X134762952Y-46680380D01*
X134667714Y-46680380D01*
X135953428Y-45680380D02*
X135762952Y-45680380D01*
X135667714Y-45728000D01*
X135620095Y-45775619D01*
X135524857Y-45918476D01*
X135477238Y-46108952D01*
X135477238Y-46489904D01*
X135524857Y-46585142D01*
X135572476Y-46632761D01*
X135667714Y-46680380D01*
X135858190Y-46680380D01*
X135953428Y-46632761D01*
X136001047Y-46585142D01*
X136048666Y-46489904D01*
X136048666Y-46251809D01*
X136001047Y-46156571D01*
X135953428Y-46108952D01*
X135858190Y-46061333D01*
X135667714Y-46061333D01*
X135572476Y-46108952D01*
X135524857Y-46156571D01*
X135477238Y-46251809D01*
X85447142Y-70878666D02*
X85494761Y-70926285D01*
X85542380Y-71069142D01*
X85542380Y-71164380D01*
X85494761Y-71307238D01*
X85399523Y-71402476D01*
X85304285Y-71450095D01*
X85113809Y-71497714D01*
X84970952Y-71497714D01*
X84780476Y-71450095D01*
X84685238Y-71402476D01*
X84590000Y-71307238D01*
X84542380Y-71164380D01*
X84542380Y-71069142D01*
X84590000Y-70926285D01*
X84637619Y-70878666D01*
X85542380Y-69926285D02*
X85542380Y-70497714D01*
X85542380Y-70212000D02*
X84542380Y-70212000D01*
X84685238Y-70307238D01*
X84780476Y-70402476D01*
X84828095Y-70497714D01*
X95957142Y-51966666D02*
X96004761Y-52014285D01*
X96052380Y-52157142D01*
X96052380Y-52252380D01*
X96004761Y-52395238D01*
X95909523Y-52490476D01*
X95814285Y-52538095D01*
X95623809Y-52585714D01*
X95480952Y-52585714D01*
X95290476Y-52538095D01*
X95195238Y-52490476D01*
X95100000Y-52395238D01*
X95052380Y-52252380D01*
X95052380Y-52157142D01*
X95100000Y-52014285D01*
X95147619Y-51966666D01*
X95052380Y-51633333D02*
X95052380Y-51014285D01*
X95433333Y-51347619D01*
X95433333Y-51204761D01*
X95480952Y-51109523D01*
X95528571Y-51061904D01*
X95623809Y-51014285D01*
X95861904Y-51014285D01*
X95957142Y-51061904D01*
X96004761Y-51109523D01*
X96052380Y-51204761D01*
X96052380Y-51490476D01*
X96004761Y-51585714D01*
X95957142Y-51633333D01*
X85447142Y-78194666D02*
X85494761Y-78242285D01*
X85542380Y-78385142D01*
X85542380Y-78480380D01*
X85494761Y-78623238D01*
X85399523Y-78718476D01*
X85304285Y-78766095D01*
X85113809Y-78813714D01*
X84970952Y-78813714D01*
X84780476Y-78766095D01*
X84685238Y-78718476D01*
X84590000Y-78623238D01*
X84542380Y-78480380D01*
X84542380Y-78385142D01*
X84590000Y-78242285D01*
X84637619Y-78194666D01*
X84637619Y-77813714D02*
X84590000Y-77766095D01*
X84542380Y-77670857D01*
X84542380Y-77432761D01*
X84590000Y-77337523D01*
X84637619Y-77289904D01*
X84732857Y-77242285D01*
X84828095Y-77242285D01*
X84970952Y-77289904D01*
X85542380Y-77861333D01*
X85542380Y-77242285D01*
X77160380Y-89320666D02*
X76684190Y-89654000D01*
X77160380Y-89892095D02*
X76160380Y-89892095D01*
X76160380Y-89511142D01*
X76208000Y-89415904D01*
X76255619Y-89368285D01*
X76350857Y-89320666D01*
X76493714Y-89320666D01*
X76588952Y-89368285D01*
X76636571Y-89415904D01*
X76684190Y-89511142D01*
X76684190Y-89892095D01*
X77160380Y-88368285D02*
X77160380Y-88939714D01*
X77160380Y-88654000D02*
X76160380Y-88654000D01*
X76303238Y-88749238D01*
X76398476Y-88844476D01*
X76446095Y-88939714D01*
X138504761Y-67833333D02*
X138552380Y-67690476D01*
X138552380Y-67452380D01*
X138504761Y-67357142D01*
X138457142Y-67309523D01*
X138361904Y-67261904D01*
X138266666Y-67261904D01*
X138171428Y-67309523D01*
X138123809Y-67357142D01*
X138076190Y-67452380D01*
X138028571Y-67642857D01*
X137980952Y-67738095D01*
X137933333Y-67785714D01*
X137838095Y-67833333D01*
X137742857Y-67833333D01*
X137647619Y-67785714D01*
X137600000Y-67738095D01*
X137552380Y-67642857D01*
X137552380Y-67404761D01*
X137600000Y-67261904D01*
X137552380Y-66928571D02*
X138552380Y-66690476D01*
X137838095Y-66500000D01*
X138552380Y-66309523D01*
X137552380Y-66071428D01*
X137552380Y-65785714D02*
X137552380Y-65166666D01*
X137933333Y-65500000D01*
X137933333Y-65357142D01*
X137980952Y-65261904D01*
X138028571Y-65214285D01*
X138123809Y-65166666D01*
X138361904Y-65166666D01*
X138457142Y-65214285D01*
X138504761Y-65261904D01*
X138552380Y-65357142D01*
X138552380Y-65642857D01*
X138504761Y-65738095D01*
X138457142Y-65785714D01*
X138504761Y-75583333D02*
X138552380Y-75440476D01*
X138552380Y-75202380D01*
X138504761Y-75107142D01*
X138457142Y-75059523D01*
X138361904Y-75011904D01*
X138266666Y-75011904D01*
X138171428Y-75059523D01*
X138123809Y-75107142D01*
X138076190Y-75202380D01*
X138028571Y-75392857D01*
X137980952Y-75488095D01*
X137933333Y-75535714D01*
X137838095Y-75583333D01*
X137742857Y-75583333D01*
X137647619Y-75535714D01*
X137600000Y-75488095D01*
X137552380Y-75392857D01*
X137552380Y-75154761D01*
X137600000Y-75011904D01*
X137552380Y-74678571D02*
X138552380Y-74440476D01*
X137838095Y-74250000D01*
X138552380Y-74059523D01*
X137552380Y-73821428D01*
X137647619Y-73488095D02*
X137600000Y-73440476D01*
X137552380Y-73345238D01*
X137552380Y-73107142D01*
X137600000Y-73011904D01*
X137647619Y-72964285D01*
X137742857Y-72916666D01*
X137838095Y-72916666D01*
X137980952Y-72964285D01*
X138552380Y-73535714D01*
X138552380Y-72916666D01*
X109670761Y-68365380D02*
X109337428Y-67889190D01*
X109099333Y-68365380D02*
X109099333Y-67365380D01*
X109480285Y-67365380D01*
X109575523Y-67413000D01*
X109623142Y-67460619D01*
X109670761Y-67555857D01*
X109670761Y-67698714D01*
X109623142Y-67793952D01*
X109575523Y-67841571D01*
X109480285Y-67889190D01*
X109099333Y-67889190D01*
X109956476Y-67365380D02*
X110289809Y-68365380D01*
X110623142Y-67365380D01*
X111480285Y-68365380D02*
X110908857Y-68365380D01*
X111194571Y-68365380D02*
X111194571Y-67365380D01*
X111099333Y-67508238D01*
X111004095Y-67603476D01*
X110908857Y-67651095D01*
X101733333Y-62542380D02*
X101400000Y-62066190D01*
X101161904Y-62542380D02*
X101161904Y-61542380D01*
X101542857Y-61542380D01*
X101638095Y-61590000D01*
X101685714Y-61637619D01*
X101733333Y-61732857D01*
X101733333Y-61875714D01*
X101685714Y-61970952D01*
X101638095Y-62018571D01*
X101542857Y-62066190D01*
X101161904Y-62066190D01*
X102114285Y-61637619D02*
X102161904Y-61590000D01*
X102257142Y-61542380D01*
X102495238Y-61542380D01*
X102590476Y-61590000D01*
X102638095Y-61637619D01*
X102685714Y-61732857D01*
X102685714Y-61828095D01*
X102638095Y-61970952D01*
X102066666Y-62542380D01*
X102685714Y-62542380D01*
X98218666Y-85304380D02*
X98218666Y-86018666D01*
X98171047Y-86161523D01*
X98075809Y-86256761D01*
X97932952Y-86304380D01*
X97837714Y-86304380D01*
X98599619Y-85304380D02*
X99218666Y-85304380D01*
X98885333Y-85685333D01*
X99028190Y-85685333D01*
X99123428Y-85732952D01*
X99171047Y-85780571D01*
X99218666Y-85875809D01*
X99218666Y-86113904D01*
X99171047Y-86209142D01*
X99123428Y-86256761D01*
X99028190Y-86304380D01*
X98742476Y-86304380D01*
X98647238Y-86256761D01*
X98599619Y-86209142D01*
X80970380Y-87860095D02*
X79970380Y-87860095D01*
X79970380Y-87622000D01*
X80018000Y-87479142D01*
X80113238Y-87383904D01*
X80208476Y-87336285D01*
X80398952Y-87288666D01*
X80541809Y-87288666D01*
X80732285Y-87336285D01*
X80827523Y-87383904D01*
X80922761Y-87479142D01*
X80970380Y-87622000D01*
X80970380Y-87860095D01*
X80970380Y-86812476D02*
X80970380Y-86622000D01*
X80922761Y-86526761D01*
X80875142Y-86479142D01*
X80732285Y-86383904D01*
X80541809Y-86336285D01*
X80160857Y-86336285D01*
X80065619Y-86383904D01*
X80018000Y-86431523D01*
X79970380Y-86526761D01*
X79970380Y-86717238D01*
X80018000Y-86812476D01*
X80065619Y-86860095D01*
X80160857Y-86907714D01*
X80398952Y-86907714D01*
X80494190Y-86860095D01*
X80541809Y-86812476D01*
X80589428Y-86717238D01*
X80589428Y-86526761D01*
X80541809Y-86431523D01*
X80494190Y-86383904D01*
X80398952Y-86336285D01*
X80970380Y-95003904D02*
X79970380Y-95003904D01*
X80970380Y-94432476D02*
X80398952Y-94861047D01*
X79970380Y-94432476D02*
X80541809Y-95003904D01*
X126152380Y-73792857D02*
X125676190Y-74126190D01*
X126152380Y-74364285D02*
X125152380Y-74364285D01*
X125152380Y-73983333D01*
X125200000Y-73888095D01*
X125247619Y-73840476D01*
X125342857Y-73792857D01*
X125485714Y-73792857D01*
X125580952Y-73840476D01*
X125628571Y-73888095D01*
X125676190Y-73983333D01*
X125676190Y-74364285D01*
X126152380Y-72840476D02*
X126152380Y-73411904D01*
X126152380Y-73126190D02*
X125152380Y-73126190D01*
X125295238Y-73221428D01*
X125390476Y-73316666D01*
X125438095Y-73411904D01*
X125152380Y-72221428D02*
X125152380Y-72126190D01*
X125200000Y-72030952D01*
X125247619Y-71983333D01*
X125342857Y-71935714D01*
X125533333Y-71888095D01*
X125771428Y-71888095D01*
X125961904Y-71935714D01*
X126057142Y-71983333D01*
X126104761Y-72030952D01*
X126152380Y-72126190D01*
X126152380Y-72221428D01*
X126104761Y-72316666D01*
X126057142Y-72364285D01*
X125961904Y-72411904D01*
X125771428Y-72459523D01*
X125533333Y-72459523D01*
X125342857Y-72411904D01*
X125247619Y-72364285D01*
X125200000Y-72316666D01*
X125152380Y-72221428D01*
X111643333Y-65552380D02*
X111310000Y-65076190D01*
X111071904Y-65552380D02*
X111071904Y-64552380D01*
X111452857Y-64552380D01*
X111548095Y-64600000D01*
X111595714Y-64647619D01*
X111643333Y-64742857D01*
X111643333Y-64885714D01*
X111595714Y-64980952D01*
X111548095Y-65028571D01*
X111452857Y-65076190D01*
X111071904Y-65076190D01*
X112548095Y-64552380D02*
X112071904Y-64552380D01*
X112024285Y-65028571D01*
X112071904Y-64980952D01*
X112167142Y-64933333D01*
X112405238Y-64933333D01*
X112500476Y-64980952D01*
X112548095Y-65028571D01*
X112595714Y-65123809D01*
X112595714Y-65361904D01*
X112548095Y-65457142D01*
X112500476Y-65504761D01*
X112405238Y-65552380D01*
X112167142Y-65552380D01*
X112071904Y-65504761D01*
X112024285Y-65457142D01*
X71516666Y-76402380D02*
X71516666Y-77116666D01*
X71469047Y-77259523D01*
X71373809Y-77354761D01*
X71230952Y-77402380D01*
X71135714Y-77402380D01*
X72516666Y-77402380D02*
X71945238Y-77402380D01*
X72230952Y-77402380D02*
X72230952Y-76402380D01*
X72135714Y-76545238D01*
X72040476Y-76640476D01*
X71945238Y-76688095D01*
X122626380Y-85726666D02*
X122150190Y-86060000D01*
X122626380Y-86298095D02*
X121626380Y-86298095D01*
X121626380Y-85917142D01*
X121674000Y-85821904D01*
X121721619Y-85774285D01*
X121816857Y-85726666D01*
X121959714Y-85726666D01*
X122054952Y-85774285D01*
X122102571Y-85821904D01*
X122150190Y-85917142D01*
X122150190Y-86298095D01*
X122626380Y-85250476D02*
X122626380Y-85060000D01*
X122578761Y-84964761D01*
X122531142Y-84917142D01*
X122388285Y-84821904D01*
X122197809Y-84774285D01*
X121816857Y-84774285D01*
X121721619Y-84821904D01*
X121674000Y-84869523D01*
X121626380Y-84964761D01*
X121626380Y-85155238D01*
X121674000Y-85250476D01*
X121721619Y-85298095D01*
X121816857Y-85345714D01*
X122054952Y-85345714D01*
X122150190Y-85298095D01*
X122197809Y-85250476D01*
X122245428Y-85155238D01*
X122245428Y-84964761D01*
X122197809Y-84869523D01*
X122150190Y-84821904D01*
X122054952Y-84774285D01*
X133661904Y-60277380D02*
X133661904Y-59277380D01*
X133900000Y-59277380D01*
X134042857Y-59325000D01*
X134138095Y-59420238D01*
X134185714Y-59515476D01*
X134233333Y-59705952D01*
X134233333Y-59848809D01*
X134185714Y-60039285D01*
X134138095Y-60134523D01*
X134042857Y-60229761D01*
X133900000Y-60277380D01*
X133661904Y-60277380D01*
X134566666Y-59277380D02*
X135233333Y-59277380D01*
X134804761Y-60277380D01*
X88366666Y-46413380D02*
X88366666Y-47127666D01*
X88319047Y-47270523D01*
X88223809Y-47365761D01*
X88080952Y-47413380D01*
X87985714Y-47413380D01*
X88985714Y-46841952D02*
X88890476Y-46794333D01*
X88842857Y-46746714D01*
X88795238Y-46651476D01*
X88795238Y-46603857D01*
X88842857Y-46508619D01*
X88890476Y-46461000D01*
X88985714Y-46413380D01*
X89176190Y-46413380D01*
X89271428Y-46461000D01*
X89319047Y-46508619D01*
X89366666Y-46603857D01*
X89366666Y-46651476D01*
X89319047Y-46746714D01*
X89271428Y-46794333D01*
X89176190Y-46841952D01*
X88985714Y-46841952D01*
X88890476Y-46889571D01*
X88842857Y-46937190D01*
X88795238Y-47032428D01*
X88795238Y-47222904D01*
X88842857Y-47318142D01*
X88890476Y-47365761D01*
X88985714Y-47413380D01*
X89176190Y-47413380D01*
X89271428Y-47365761D01*
X89319047Y-47318142D01*
X89366666Y-47222904D01*
X89366666Y-47032428D01*
X89319047Y-46937190D01*
X89271428Y-46889571D01*
X89176190Y-46841952D01*
X122754761Y-68202380D02*
X122421428Y-67726190D01*
X122183333Y-68202380D02*
X122183333Y-67202380D01*
X122564285Y-67202380D01*
X122659523Y-67250000D01*
X122707142Y-67297619D01*
X122754761Y-67392857D01*
X122754761Y-67535714D01*
X122707142Y-67630952D01*
X122659523Y-67678571D01*
X122564285Y-67726190D01*
X122183333Y-67726190D01*
X123040476Y-67202380D02*
X123373809Y-68202380D01*
X123707142Y-67202380D01*
X123992857Y-67297619D02*
X124040476Y-67250000D01*
X124135714Y-67202380D01*
X124373809Y-67202380D01*
X124469047Y-67250000D01*
X124516666Y-67297619D01*
X124564285Y-67392857D01*
X124564285Y-67488095D01*
X124516666Y-67630952D01*
X123945238Y-68202380D01*
X124564285Y-68202380D01*
X128811904Y-60202380D02*
X128811904Y-59202380D01*
X129050000Y-59202380D01*
X129192857Y-59250000D01*
X129288095Y-59345238D01*
X129335714Y-59440476D01*
X129383333Y-59630952D01*
X129383333Y-59773809D01*
X129335714Y-59964285D01*
X129288095Y-60059523D01*
X129192857Y-60154761D01*
X129050000Y-60202380D01*
X128811904Y-60202380D01*
X130240476Y-59202380D02*
X130050000Y-59202380D01*
X129954761Y-59250000D01*
X129907142Y-59297619D01*
X129811904Y-59440476D01*
X129764285Y-59630952D01*
X129764285Y-60011904D01*
X129811904Y-60107142D01*
X129859523Y-60154761D01*
X129954761Y-60202380D01*
X130145238Y-60202380D01*
X130240476Y-60154761D01*
X130288095Y-60107142D01*
X130335714Y-60011904D01*
X130335714Y-59773809D01*
X130288095Y-59678571D01*
X130240476Y-59630952D01*
X130145238Y-59583333D01*
X129954761Y-59583333D01*
X129859523Y-59630952D01*
X129811904Y-59678571D01*
X129764285Y-59773809D01*
X87550666Y-85302380D02*
X87550666Y-86016666D01*
X87503047Y-86159523D01*
X87407809Y-86254761D01*
X87264952Y-86302380D01*
X87169714Y-86302380D01*
X87979238Y-85397619D02*
X88026857Y-85350000D01*
X88122095Y-85302380D01*
X88360190Y-85302380D01*
X88455428Y-85350000D01*
X88503047Y-85397619D01*
X88550666Y-85492857D01*
X88550666Y-85588095D01*
X88503047Y-85730952D01*
X87931619Y-86302380D01*
X88550666Y-86302380D01*
X101247142Y-59552380D02*
X100913809Y-59076190D01*
X100675714Y-59552380D02*
X100675714Y-58552380D01*
X101056666Y-58552380D01*
X101151904Y-58600000D01*
X101199523Y-58647619D01*
X101247142Y-58742857D01*
X101247142Y-58885714D01*
X101199523Y-58980952D01*
X101151904Y-59028571D01*
X101056666Y-59076190D01*
X100675714Y-59076190D01*
X102199523Y-59552380D02*
X101628095Y-59552380D01*
X101913809Y-59552380D02*
X101913809Y-58552380D01*
X101818571Y-58695238D01*
X101723333Y-58790476D01*
X101628095Y-58838095D01*
X103056666Y-58885714D02*
X103056666Y-59552380D01*
X102818571Y-58504761D02*
X102580476Y-59219047D01*
X103199523Y-59219047D01*
X74112380Y-89796857D02*
X73636190Y-90130190D01*
X74112380Y-90368285D02*
X73112380Y-90368285D01*
X73112380Y-89987333D01*
X73160000Y-89892095D01*
X73207619Y-89844476D01*
X73302857Y-89796857D01*
X73445714Y-89796857D01*
X73540952Y-89844476D01*
X73588571Y-89892095D01*
X73636190Y-89987333D01*
X73636190Y-90368285D01*
X74112380Y-88844476D02*
X74112380Y-89415904D01*
X74112380Y-89130190D02*
X73112380Y-89130190D01*
X73255238Y-89225428D01*
X73350476Y-89320666D01*
X73398095Y-89415904D01*
X73112380Y-88511142D02*
X73112380Y-87892095D01*
X73493333Y-88225428D01*
X73493333Y-88082571D01*
X73540952Y-87987333D01*
X73588571Y-87939714D01*
X73683809Y-87892095D01*
X73921904Y-87892095D01*
X74017142Y-87939714D01*
X74064761Y-87987333D01*
X74112380Y-88082571D01*
X74112380Y-88368285D01*
X74064761Y-88463523D01*
X74017142Y-88511142D01*
X93191904Y-69946380D02*
X93191904Y-68946380D01*
X93430000Y-68946380D01*
X93572857Y-68994000D01*
X93668095Y-69089238D01*
X93715714Y-69184476D01*
X93763333Y-69374952D01*
X93763333Y-69517809D01*
X93715714Y-69708285D01*
X93668095Y-69803523D01*
X93572857Y-69898761D01*
X93430000Y-69946380D01*
X93191904Y-69946380D01*
X94096666Y-68946380D02*
X94715714Y-68946380D01*
X94382380Y-69327333D01*
X94525238Y-69327333D01*
X94620476Y-69374952D01*
X94668095Y-69422571D01*
X94715714Y-69517809D01*
X94715714Y-69755904D01*
X94668095Y-69851142D01*
X94620476Y-69898761D01*
X94525238Y-69946380D01*
X94239523Y-69946380D01*
X94144285Y-69898761D01*
X94096666Y-69851142D01*
X77747904Y-78684380D02*
X77747904Y-77684380D01*
X77986000Y-77684380D01*
X78128857Y-77732000D01*
X78224095Y-77827238D01*
X78271714Y-77922476D01*
X78319333Y-78112952D01*
X78319333Y-78255809D01*
X78271714Y-78446285D01*
X78224095Y-78541523D01*
X78128857Y-78636761D01*
X77986000Y-78684380D01*
X77747904Y-78684380D01*
X79271714Y-78684380D02*
X78700285Y-78684380D01*
X78986000Y-78684380D02*
X78986000Y-77684380D01*
X78890761Y-77827238D01*
X78795523Y-77922476D01*
X78700285Y-77970095D01*
X111813333Y-59502380D02*
X111480000Y-59026190D01*
X111241904Y-59502380D02*
X111241904Y-58502380D01*
X111622857Y-58502380D01*
X111718095Y-58550000D01*
X111765714Y-58597619D01*
X111813333Y-58692857D01*
X111813333Y-58835714D01*
X111765714Y-58930952D01*
X111718095Y-58978571D01*
X111622857Y-59026190D01*
X111241904Y-59026190D01*
X112384761Y-58930952D02*
X112289523Y-58883333D01*
X112241904Y-58835714D01*
X112194285Y-58740476D01*
X112194285Y-58692857D01*
X112241904Y-58597619D01*
X112289523Y-58550000D01*
X112384761Y-58502380D01*
X112575238Y-58502380D01*
X112670476Y-58550000D01*
X112718095Y-58597619D01*
X112765714Y-58692857D01*
X112765714Y-58740476D01*
X112718095Y-58835714D01*
X112670476Y-58883333D01*
X112575238Y-58930952D01*
X112384761Y-58930952D01*
X112289523Y-58978571D01*
X112241904Y-59026190D01*
X112194285Y-59121428D01*
X112194285Y-59311904D01*
X112241904Y-59407142D01*
X112289523Y-59454761D01*
X112384761Y-59502380D01*
X112575238Y-59502380D01*
X112670476Y-59454761D01*
X112718095Y-59407142D01*
X112765714Y-59311904D01*
X112765714Y-59121428D01*
X112718095Y-59026190D01*
X112670476Y-58978571D01*
X112575238Y-58930952D01*
X82219047Y-44028571D02*
X82361904Y-44076190D01*
X82409523Y-44123809D01*
X82457142Y-44219047D01*
X82457142Y-44361904D01*
X82409523Y-44457142D01*
X82361904Y-44504761D01*
X82266666Y-44552380D01*
X81885714Y-44552380D01*
X81885714Y-43552380D01*
X82219047Y-43552380D01*
X82314285Y-43600000D01*
X82361904Y-43647619D01*
X82409523Y-43742857D01*
X82409523Y-43838095D01*
X82361904Y-43933333D01*
X82314285Y-43980952D01*
X82219047Y-44028571D01*
X81885714Y-44028571D01*
X82790476Y-43552380D02*
X83457142Y-43552380D01*
X82790476Y-44552380D01*
X83457142Y-44552380D01*
X84361904Y-44552380D02*
X83790476Y-44552380D01*
X84076190Y-44552380D02*
X84076190Y-43552380D01*
X83980952Y-43695238D01*
X83885714Y-43790476D01*
X83790476Y-43838095D01*
X80829047Y-51961428D02*
X81590952Y-51961428D01*
X81210000Y-52342380D02*
X81210000Y-51580476D01*
X116530380Y-86192857D02*
X116054190Y-86526190D01*
X116530380Y-86764285D02*
X115530380Y-86764285D01*
X115530380Y-86383333D01*
X115578000Y-86288095D01*
X115625619Y-86240476D01*
X115720857Y-86192857D01*
X115863714Y-86192857D01*
X115958952Y-86240476D01*
X116006571Y-86288095D01*
X116054190Y-86383333D01*
X116054190Y-86764285D01*
X116530380Y-85240476D02*
X116530380Y-85811904D01*
X116530380Y-85526190D02*
X115530380Y-85526190D01*
X115673238Y-85621428D01*
X115768476Y-85716666D01*
X115816095Y-85811904D01*
X116530380Y-84288095D02*
X116530380Y-84859523D01*
X116530380Y-84573809D02*
X115530380Y-84573809D01*
X115673238Y-84669047D01*
X115768476Y-84764285D01*
X115816095Y-84859523D01*
X119578380Y-86192857D02*
X119102190Y-86526190D01*
X119578380Y-86764285D02*
X118578380Y-86764285D01*
X118578380Y-86383333D01*
X118626000Y-86288095D01*
X118673619Y-86240476D01*
X118768857Y-86192857D01*
X118911714Y-86192857D01*
X119006952Y-86240476D01*
X119054571Y-86288095D01*
X119102190Y-86383333D01*
X119102190Y-86764285D01*
X119578380Y-85240476D02*
X119578380Y-85811904D01*
X119578380Y-85526190D02*
X118578380Y-85526190D01*
X118721238Y-85621428D01*
X118816476Y-85716666D01*
X118864095Y-85811904D01*
X118673619Y-84859523D02*
X118626000Y-84811904D01*
X118578380Y-84716666D01*
X118578380Y-84478571D01*
X118626000Y-84383333D01*
X118673619Y-84335714D01*
X118768857Y-84288095D01*
X118864095Y-84288095D01*
X119006952Y-84335714D01*
X119578380Y-84907142D01*
X119578380Y-84288095D01*
X119811904Y-60352380D02*
X119811904Y-59352380D01*
X120050000Y-59352380D01*
X120192857Y-59400000D01*
X120288095Y-59495238D01*
X120335714Y-59590476D01*
X120383333Y-59780952D01*
X120383333Y-59923809D01*
X120335714Y-60114285D01*
X120288095Y-60209523D01*
X120192857Y-60304761D01*
X120050000Y-60352380D01*
X119811904Y-60352380D01*
X121240476Y-59685714D02*
X121240476Y-60352380D01*
X121002380Y-59304761D02*
X120764285Y-60019047D01*
X121383333Y-60019047D01*
X91966666Y-46413380D02*
X91966666Y-47127666D01*
X91919047Y-47270523D01*
X91823809Y-47365761D01*
X91680952Y-47413380D01*
X91585714Y-47413380D01*
X92919047Y-46413380D02*
X92442857Y-46413380D01*
X92395238Y-46889571D01*
X92442857Y-46841952D01*
X92538095Y-46794333D01*
X92776190Y-46794333D01*
X92871428Y-46841952D01*
X92919047Y-46889571D01*
X92966666Y-46984809D01*
X92966666Y-47222904D01*
X92919047Y-47318142D01*
X92871428Y-47365761D01*
X92776190Y-47413380D01*
X92538095Y-47413380D01*
X92442857Y-47365761D01*
X92395238Y-47318142D01*
D13*
X97342000Y-73032000D02*
X87062000Y-73032000D01*
X87062000Y-76682000D02*
X87062000Y-78332000D01*
X97402000Y-80822000D02*
X97402000Y-70542000D01*
X87002000Y-80822000D02*
X97402000Y-80822000D01*
X97342000Y-78332000D02*
X97342000Y-73032000D01*
X97402000Y-70542000D02*
X87002000Y-70542000D01*
X87002000Y-70542000D02*
X87002000Y-80822000D01*
X87062000Y-73032000D02*
X87062000Y-74682000D01*
X87062000Y-78332000D02*
X97342000Y-78332000D01*
X87062000Y-76682000D02*
G75*
G03*
X87062000Y-74682000I0J1000000D01*
G01*
X115080000Y-60730000D02*
X115080000Y-61060000D01*
X108540000Y-63470000D02*
X115080000Y-63470000D01*
X108540000Y-61060000D02*
X108540000Y-60730000D01*
X108540000Y-60730000D02*
X115080000Y-60730000D01*
X108540000Y-63140000D02*
X108540000Y-63470000D01*
X115080000Y-63470000D02*
X115080000Y-63140000D01*
X97486000Y-49310000D02*
X97486000Y-54610000D01*
X117986000Y-57100000D02*
X117986000Y-46820000D01*
X97426000Y-57100000D02*
X117986000Y-57100000D01*
X97486000Y-54610000D02*
X117926000Y-54610000D01*
X97426000Y-46820000D02*
X97426000Y-57100000D01*
X117926000Y-49310000D02*
X97486000Y-49310000D01*
X117926000Y-54610000D02*
X117926000Y-52960000D01*
X117926000Y-50960000D02*
X117926000Y-49310000D01*
X117986000Y-46820000D02*
X97426000Y-46820000D01*
X117926000Y-50960000D02*
G75*
G03*
X117926000Y-52960000I0J-1000000D01*
G01*
X124070000Y-55085000D02*
X123914000Y-55085000D01*
X126386000Y-55085000D02*
X126230000Y-55085000D01*
X124070000Y-55604039D02*
G75*
G03*
X124070163Y-57686130I1080000J-1040961D01*
G01*
X126228608Y-58317335D02*
G75*
G03*
X126385516Y-55085000I-1078608J1672335D01*
G01*
X123914484Y-55085000D02*
G75*
G03*
X124071392Y-58317335I1235516J-1560000D01*
G01*
X126229837Y-57686130D02*
G75*
G03*
X126230000Y-55604039I-1079837J1041130D01*
G01*
X130160000Y-89010000D02*
X129810000Y-89010000D01*
X130160000Y-86470000D02*
X129750000Y-86470000D01*
X138790000Y-88915240D02*
X130160000Y-88915240D01*
X138790000Y-87970480D02*
X130160000Y-87970480D01*
X130160000Y-85750000D02*
X129750000Y-85750000D01*
X138790000Y-88088575D02*
X130160000Y-88088575D01*
X138790000Y-88442860D02*
X130160000Y-88442860D01*
X138790000Y-89980000D02*
X130160000Y-89980000D01*
X128700000Y-89980000D02*
X127590000Y-89980000D01*
X130160000Y-89980000D02*
X130160000Y-79700000D01*
X127590000Y-89980000D02*
X127590000Y-88650000D01*
X138790000Y-82300000D02*
X130160000Y-82300000D01*
X138790000Y-88324765D02*
X130160000Y-88324765D01*
X138790000Y-89860000D02*
X130160000Y-89860000D01*
X138790000Y-89980000D02*
X138790000Y-79700000D01*
X130160000Y-88290000D02*
X129810000Y-88290000D01*
X130160000Y-83930000D02*
X129750000Y-83930000D01*
X138790000Y-89505715D02*
X130160000Y-89505715D01*
X138790000Y-87380000D02*
X130160000Y-87380000D01*
X138790000Y-79700000D02*
X130160000Y-79700000D01*
X138790000Y-88206670D02*
X130160000Y-88206670D01*
X138790000Y-87616195D02*
X130160000Y-87616195D01*
X138790000Y-87734290D02*
X130160000Y-87734290D01*
X138790000Y-89269525D02*
X130160000Y-89269525D01*
X130160000Y-80670000D02*
X129750000Y-80670000D01*
X138790000Y-87852385D02*
X130160000Y-87852385D01*
X130160000Y-81390000D02*
X129750000Y-81390000D01*
X138790000Y-88797145D02*
X130160000Y-88797145D01*
X138790000Y-89151430D02*
X130160000Y-89151430D01*
X138790000Y-89741905D02*
X130160000Y-89741905D01*
X138790000Y-87498100D02*
X130160000Y-87498100D01*
X138790000Y-84840000D02*
X130160000Y-84840000D01*
X138790000Y-89623810D02*
X130160000Y-89623810D01*
X138790000Y-88560955D02*
X130160000Y-88560955D01*
X138790000Y-88679050D02*
X130160000Y-88679050D01*
X138790000Y-89033335D02*
X130160000Y-89033335D01*
X138790000Y-89387620D02*
X130160000Y-89387620D01*
X130160000Y-83210000D02*
X129750000Y-83210000D01*
X105160000Y-66470000D02*
X98620000Y-66470000D01*
X105160000Y-66140000D02*
X105160000Y-66470000D01*
X98620000Y-66470000D02*
X98620000Y-66140000D01*
X105160000Y-64060000D02*
X105160000Y-63730000D01*
X98620000Y-63730000D02*
X98620000Y-64060000D01*
X105160000Y-63730000D02*
X98620000Y-63730000D01*
X92744000Y-60239000D02*
X92900000Y-60239000D01*
X95060000Y-60239000D02*
X95216000Y-60239000D01*
X95060000Y-59719961D02*
G75*
G03*
X95059837Y-57637870I-1080000J1040961D01*
G01*
X95215516Y-60239000D02*
G75*
G03*
X95058608Y-57006665I-1235516J1560000D01*
G01*
X92901392Y-57006665D02*
G75*
G03*
X92744484Y-60239000I1078608J-1672335D01*
G01*
X92900163Y-57637870D02*
G75*
G03*
X92900000Y-59719961I1079837J-1041130D01*
G01*
X118620000Y-66140000D02*
X118620000Y-66470000D01*
X118620000Y-63730000D02*
X125160000Y-63730000D01*
X125160000Y-66470000D02*
X125160000Y-66140000D01*
X118620000Y-64060000D02*
X118620000Y-63730000D01*
X118620000Y-66470000D02*
X125160000Y-66470000D01*
X125160000Y-63730000D02*
X125160000Y-64060000D01*
X88172000Y-67854000D02*
X88328000Y-67854000D01*
X90488000Y-67854000D02*
X90644000Y-67854000D01*
X88329392Y-64621665D02*
G75*
G03*
X88172484Y-67854000I1078608J-1672335D01*
G01*
X90488000Y-67334961D02*
G75*
G03*
X90487837Y-65252870I-1080000J1040961D01*
G01*
X90643516Y-67854000D02*
G75*
G03*
X90486608Y-64621665I-1235516J1560000D01*
G01*
X88328163Y-65252870D02*
G75*
G03*
X88328000Y-67334961I1079837J-1041130D01*
G01*
X90488000Y-60239000D02*
X90644000Y-60239000D01*
X88172000Y-60239000D02*
X88328000Y-60239000D01*
X90488000Y-59719961D02*
G75*
G03*
X90487837Y-57637870I-1080000J1040961D01*
G01*
X88329392Y-57006665D02*
G75*
G03*
X88172484Y-60239000I1078608J-1672335D01*
G01*
X88328163Y-57637870D02*
G75*
G03*
X88328000Y-59719961I1079837J-1041130D01*
G01*
X90643516Y-60239000D02*
G75*
G03*
X90486608Y-57006665I-1235516J1560000D01*
G01*
X118620000Y-63140000D02*
X118620000Y-63470000D01*
X118620000Y-60730000D02*
X125160000Y-60730000D01*
X118620000Y-63470000D02*
X125160000Y-63470000D01*
X125160000Y-63470000D02*
X125160000Y-63140000D01*
X125160000Y-60730000D02*
X125160000Y-61060000D01*
X118620000Y-61060000D02*
X118620000Y-60730000D01*
X104140000Y-83310000D02*
X114300000Y-83310000D01*
X104140000Y-89660000D02*
X114300000Y-89660000D01*
X114300000Y-82040000D02*
X104140000Y-82040000D01*
X114300000Y-89660000D02*
X114300000Y-82040000D01*
X104140000Y-82040000D02*
X104140000Y-89660000D01*
X86578000Y-61432000D02*
X86578000Y-56932000D01*
X82078000Y-56932000D02*
X82078000Y-61432000D01*
X134860000Y-52960000D02*
X134860000Y-46990000D01*
X120500000Y-52200000D02*
X127300000Y-52200000D01*
X119750000Y-47750000D02*
X121550000Y-47750000D01*
X119740000Y-46990000D02*
X119740000Y-52960000D01*
X133050000Y-47000000D02*
X133050000Y-47750000D01*
X134850000Y-47750000D02*
X134850000Y-47000000D01*
X131550000Y-47750000D02*
X131550000Y-47000000D01*
X119750000Y-49250000D02*
X120500000Y-49250000D01*
X134100000Y-49250000D02*
X134100000Y-52200000D01*
X134850000Y-47000000D02*
X133050000Y-47000000D01*
X123050000Y-47750000D02*
X131550000Y-47750000D01*
X134850000Y-49250000D02*
X134100000Y-49250000D01*
X121550000Y-47750000D02*
X121550000Y-47000000D01*
X133050000Y-47750000D02*
X134850000Y-47750000D01*
X131550000Y-47000000D02*
X123050000Y-47000000D01*
X120500000Y-49250000D02*
X120500000Y-52200000D01*
X123050000Y-47000000D02*
X123050000Y-47750000D01*
X121550000Y-47000000D02*
X119750000Y-47000000D01*
X134860000Y-46990000D02*
X119740000Y-46990000D01*
X119450000Y-46700000D02*
X119450000Y-47950000D01*
X134100000Y-52200000D02*
X127300000Y-52200000D01*
X119750000Y-47000000D02*
X119750000Y-47750000D01*
X119740000Y-52960000D02*
X134860000Y-52960000D01*
X120700000Y-46700000D02*
X119450000Y-46700000D01*
X86460000Y-73232000D02*
X86460000Y-67992000D01*
X86145000Y-67992000D02*
X86460000Y-67992000D01*
X83720000Y-73232000D02*
X84035000Y-73232000D01*
X83720000Y-67992000D02*
X84035000Y-67992000D01*
X83720000Y-73232000D02*
X83720000Y-67992000D01*
X86145000Y-73232000D02*
X86460000Y-73232000D01*
X96970000Y-49180000D02*
X96655000Y-49180000D01*
X94545000Y-49180000D02*
X94230000Y-49180000D01*
X96970000Y-54420000D02*
X96655000Y-54420000D01*
X94230000Y-49180000D02*
X94230000Y-54420000D01*
X94545000Y-54420000D02*
X94230000Y-54420000D01*
X96970000Y-49180000D02*
X96970000Y-54420000D01*
X83720000Y-80598000D02*
X84035000Y-80598000D01*
X86145000Y-80598000D02*
X86460000Y-80598000D01*
X83720000Y-75358000D02*
X84035000Y-75358000D01*
X83720000Y-80598000D02*
X83720000Y-75358000D01*
X86460000Y-80598000D02*
X86460000Y-75358000D01*
X86145000Y-75358000D02*
X86460000Y-75358000D01*
X75668000Y-92424000D02*
X75338000Y-92424000D01*
X78078000Y-92424000D02*
X78078000Y-85884000D01*
X75338000Y-85884000D02*
X75668000Y-85884000D01*
X77748000Y-92424000D02*
X78078000Y-92424000D01*
X75338000Y-92424000D02*
X75338000Y-85884000D01*
X78078000Y-85884000D02*
X77748000Y-85884000D01*
X134750000Y-63250000D02*
X130250000Y-63250000D01*
X130250000Y-69750000D02*
X134750000Y-69750000D01*
X129000000Y-65750000D02*
X129000000Y-67250000D01*
X136000000Y-67250000D02*
X136000000Y-65750000D01*
X129000000Y-73550000D02*
X129000000Y-75050000D01*
X134750000Y-71050000D02*
X130250000Y-71050000D01*
X130250000Y-77550000D02*
X134750000Y-77550000D01*
X136000000Y-75050000D02*
X136000000Y-73550000D01*
X99296000Y-68818000D02*
X99296000Y-73538000D01*
X99296000Y-68818000D02*
X100786000Y-68818000D01*
X99296000Y-77348000D02*
X99296000Y-80408000D01*
X109046000Y-68818000D02*
X109046000Y-73538000D01*
X109036000Y-77348000D02*
X109036000Y-80408000D01*
X102506000Y-68818000D02*
X103336000Y-68818000D01*
X99296000Y-80408000D02*
X109036000Y-80408000D01*
X104956000Y-68818000D02*
X105486000Y-68818000D01*
X107856000Y-68818000D02*
X109036000Y-68818000D01*
X105160000Y-63470000D02*
X98620000Y-63470000D01*
X98620000Y-63470000D02*
X98620000Y-63140000D01*
X105160000Y-61060000D02*
X105160000Y-60730000D01*
X98620000Y-60730000D02*
X98620000Y-61060000D01*
X105160000Y-60730000D02*
X98620000Y-60730000D01*
X105160000Y-63140000D02*
X105160000Y-63470000D01*
X103632000Y-82042000D02*
X93472000Y-82042000D01*
X93472000Y-82042000D02*
X93472000Y-89662000D01*
X93472000Y-83312000D02*
X103632000Y-83312000D01*
X93472000Y-89662000D02*
X103632000Y-89662000D01*
X103632000Y-89662000D02*
X103632000Y-82042000D01*
X79048000Y-89450000D02*
X81988000Y-89450000D01*
X79048000Y-89330000D02*
X81988000Y-89330000D01*
X80518000Y-83890000D02*
X80518000Y-84910000D01*
X79048000Y-90350000D02*
X81988000Y-90350000D01*
X79048000Y-84910000D02*
X79048000Y-90350000D01*
X80518000Y-91370000D02*
X80518000Y-90350000D01*
X79048000Y-89570000D02*
X81988000Y-89570000D01*
X81988000Y-90350000D02*
X81988000Y-84910000D01*
X81988000Y-84910000D02*
X79048000Y-84910000D01*
X126740000Y-69890000D02*
X127070000Y-69890000D01*
X124330000Y-69890000D02*
X124330000Y-76430000D01*
X124660000Y-69890000D02*
X124330000Y-69890000D01*
X127070000Y-69890000D02*
X127070000Y-76430000D01*
X127070000Y-76430000D02*
X126740000Y-76430000D01*
X124330000Y-76430000D02*
X124660000Y-76430000D01*
X108540000Y-64060000D02*
X108540000Y-63730000D01*
X108540000Y-66470000D02*
X115080000Y-66470000D01*
X108540000Y-66140000D02*
X108540000Y-66470000D01*
X115080000Y-63730000D02*
X115080000Y-64060000D01*
X115080000Y-66470000D02*
X115080000Y-66140000D01*
X108540000Y-63730000D02*
X115080000Y-63730000D01*
X82700000Y-73550000D02*
X82700000Y-75550000D01*
X68200000Y-66350000D02*
X82700000Y-66350000D01*
X68200000Y-75550000D02*
X68200000Y-66350000D01*
X82700000Y-75550000D02*
X81400000Y-75550000D01*
X83000000Y-66050000D02*
X81700000Y-66050000D01*
X76800000Y-75550000D02*
X68200000Y-75550000D01*
X83000000Y-67750000D02*
X83000000Y-66050000D01*
X82700000Y-66350000D02*
X82700000Y-68350000D01*
X120804000Y-88820000D02*
X120804000Y-82280000D01*
X120804000Y-82280000D02*
X121134000Y-82280000D01*
X123544000Y-88820000D02*
X123544000Y-82280000D01*
X123544000Y-82280000D02*
X123214000Y-82280000D01*
X123214000Y-88820000D02*
X123544000Y-88820000D01*
X121134000Y-88820000D02*
X120804000Y-88820000D01*
X133270000Y-55085000D02*
X133114000Y-55085000D01*
X135586000Y-55085000D02*
X135430000Y-55085000D01*
X133270000Y-55604039D02*
G75*
G03*
X133270163Y-57686130I1080000J-1040961D01*
G01*
X133114484Y-55085000D02*
G75*
G03*
X133271392Y-58317335I1235516J-1560000D01*
G01*
X135428608Y-58317335D02*
G75*
G03*
X135585516Y-55085000I-1078608J1672335D01*
G01*
X135429837Y-57686130D02*
G75*
G03*
X135430000Y-55604039I-1079837J1041130D01*
G01*
X87370000Y-50561000D02*
X90030000Y-50561000D01*
X87370000Y-47961000D02*
X88700000Y-47961000D01*
X87370000Y-55701000D02*
X90030000Y-55701000D01*
X87370000Y-50561000D02*
X87370000Y-55701000D01*
X90030000Y-50561000D02*
X90030000Y-55701000D01*
X87370000Y-49291000D02*
X87370000Y-47961000D01*
X112380000Y-68755000D02*
X112380000Y-73475000D01*
X112380000Y-68755000D02*
X113870000Y-68755000D01*
X118040000Y-68755000D02*
X118570000Y-68755000D01*
X120940000Y-68755000D02*
X122120000Y-68755000D01*
X115590000Y-68755000D02*
X116420000Y-68755000D01*
X112380000Y-80345000D02*
X122120000Y-80345000D01*
X122130000Y-68755000D02*
X122130000Y-73475000D01*
X112380000Y-77285000D02*
X112380000Y-80345000D01*
X122120000Y-77285000D02*
X122120000Y-80345000D01*
X128670000Y-55085000D02*
X128514000Y-55085000D01*
X130986000Y-55085000D02*
X130830000Y-55085000D01*
X128670000Y-55604039D02*
G75*
G03*
X128670163Y-57686130I1080000J-1040961D01*
G01*
X130829837Y-57686130D02*
G75*
G03*
X130830000Y-55604039I-1079837J1041130D01*
G01*
X128514484Y-55085000D02*
G75*
G03*
X128671392Y-58317335I1235516J-1560000D01*
G01*
X130828608Y-58317335D02*
G75*
G03*
X130985516Y-55085000I-1078608J1672335D01*
G01*
X82804000Y-89660000D02*
X92964000Y-89660000D01*
X92964000Y-89660000D02*
X92964000Y-82040000D01*
X92964000Y-82040000D02*
X82804000Y-82040000D01*
X82804000Y-83310000D02*
X92964000Y-83310000D01*
X82804000Y-82040000D02*
X82804000Y-89660000D01*
X105160000Y-58060000D02*
X105160000Y-57730000D01*
X98620000Y-57730000D02*
X98620000Y-58060000D01*
X105160000Y-57730000D02*
X98620000Y-57730000D01*
X105160000Y-60140000D02*
X105160000Y-60470000D01*
X105160000Y-60470000D02*
X98620000Y-60470000D01*
X98620000Y-60470000D02*
X98620000Y-60140000D01*
X72620000Y-92424000D02*
X72290000Y-92424000D01*
X75030000Y-85884000D02*
X74700000Y-85884000D01*
X72290000Y-85884000D02*
X72620000Y-85884000D01*
X74700000Y-92424000D02*
X75030000Y-92424000D01*
X72290000Y-92424000D02*
X72290000Y-85884000D01*
X75030000Y-92424000D02*
X75030000Y-85884000D01*
X92744000Y-67859000D02*
X92900000Y-67859000D01*
X95060000Y-67859000D02*
X95216000Y-67859000D01*
X95215516Y-67859000D02*
G75*
G03*
X95058608Y-64626665I-1235516J1560000D01*
G01*
X92901392Y-64626665D02*
G75*
G03*
X92744484Y-67859000I1078608J-1672335D01*
G01*
X95060000Y-67339961D02*
G75*
G03*
X95059837Y-65257870I-1080000J1040961D01*
G01*
X92900163Y-65257870D02*
G75*
G03*
X92900000Y-67339961I1079837J-1041130D01*
G01*
X72530000Y-82106000D02*
X72530000Y-82571000D01*
X72530000Y-79481000D02*
X72530000Y-79946000D01*
X72530000Y-82570830D02*
G75*
G03*
X77877815Y-82106827I2560000J1544830D01*
G01*
X72835316Y-82106000D02*
G75*
G03*
X77344479Y-82106429I2254684J1080000D01*
G01*
X77877815Y-79945173D02*
G75*
G03*
X72530000Y-79481170I-2787815J-1080827D01*
G01*
X77344479Y-79945571D02*
G75*
G03*
X72835316Y-79946000I-2254479J-1080429D01*
G01*
X115080000Y-57730000D02*
X115080000Y-58060000D01*
X108540000Y-60140000D02*
X108540000Y-60470000D01*
X108540000Y-60470000D02*
X115080000Y-60470000D01*
X115080000Y-60470000D02*
X115080000Y-60140000D01*
X108540000Y-57730000D02*
X115080000Y-57730000D01*
X108540000Y-58060000D02*
X108540000Y-57730000D01*
X83500000Y-49350000D02*
G75*
G03*
X83500000Y-49350000I-6100000J0D01*
G01*
X117448000Y-88820000D02*
X117448000Y-82280000D01*
X115038000Y-88820000D02*
X114708000Y-88820000D01*
X114708000Y-88820000D02*
X114708000Y-82280000D01*
X114708000Y-82280000D02*
X115038000Y-82280000D01*
X117118000Y-88820000D02*
X117448000Y-88820000D01*
X117448000Y-82280000D02*
X117118000Y-82280000D01*
X120496000Y-88820000D02*
X120496000Y-82280000D01*
X118086000Y-88820000D02*
X117756000Y-88820000D01*
X117756000Y-88820000D02*
X117756000Y-82280000D01*
X120166000Y-88820000D02*
X120496000Y-88820000D01*
X120496000Y-82280000D02*
X120166000Y-82280000D01*
X117756000Y-82280000D02*
X118086000Y-82280000D01*
X121786000Y-55085000D02*
X121630000Y-55085000D01*
X119470000Y-55085000D02*
X119314000Y-55085000D01*
X121629837Y-57686130D02*
G75*
G03*
X121630000Y-55604039I-1079837J1041130D01*
G01*
X121628608Y-58317335D02*
G75*
G03*
X121785516Y-55085000I-1078608J1672335D01*
G01*
X119470000Y-55604039D02*
G75*
G03*
X119470163Y-57686130I1080000J-1040961D01*
G01*
X119314484Y-55085000D02*
G75*
G03*
X119471392Y-58317335I1235516J-1560000D01*
G01*
X90970000Y-50561000D02*
X93630000Y-50561000D01*
X90970000Y-49291000D02*
X90970000Y-47961000D01*
X90970000Y-50561000D02*
X90970000Y-55701000D01*
X93630000Y-50561000D02*
X93630000Y-55701000D01*
X90970000Y-55701000D02*
X93630000Y-55701000D01*
X90970000Y-47961000D02*
X92300000Y-47961000D01*
G36*
X73509910Y-55089034D02*
G01*
X73588454Y-55089464D01*
X73645298Y-55090628D01*
X73684105Y-55092893D01*
X73708538Y-55096626D01*
X73722262Y-55102192D01*
X73728940Y-55109959D01*
X73732236Y-55120291D01*
X73732556Y-55121629D01*
X73737562Y-55145765D01*
X73746829Y-55193387D01*
X73759392Y-55259427D01*
X73774287Y-55338814D01*
X73790551Y-55426482D01*
X73791119Y-55429561D01*
X73807410Y-55515475D01*
X73822652Y-55591382D01*
X73835861Y-55652731D01*
X73846054Y-55694968D01*
X73852248Y-55713541D01*
X73852543Y-55713870D01*
X73870788Y-55722939D01*
X73908405Y-55738053D01*
X73957271Y-55755948D01*
X73957543Y-55756044D01*
X74019093Y-55779179D01*
X74091657Y-55808651D01*
X74160057Y-55838283D01*
X74163294Y-55839748D01*
X74274702Y-55890312D01*
X74521399Y-55721846D01*
X74597077Y-55670489D01*
X74665631Y-55624575D01*
X74723088Y-55586716D01*
X74765476Y-55559523D01*
X74788825Y-55545607D01*
X74791042Y-55544575D01*
X74808010Y-55549170D01*
X74839701Y-55571341D01*
X74887352Y-55612133D01*
X74952198Y-55672591D01*
X75018397Y-55736913D01*
X75082214Y-55800298D01*
X75139329Y-55858137D01*
X75186305Y-55906861D01*
X75219703Y-55942896D01*
X75236085Y-55962670D01*
X75236694Y-55963688D01*
X75238505Y-55977258D01*
X75231683Y-55999419D01*
X75214540Y-56033164D01*
X75185393Y-56081486D01*
X75142555Y-56147378D01*
X75085448Y-56232203D01*
X75034766Y-56306863D01*
X74989461Y-56373826D01*
X74952150Y-56429202D01*
X74925452Y-56469106D01*
X74911985Y-56489648D01*
X74911137Y-56491042D01*
X74912781Y-56510724D01*
X74925245Y-56548979D01*
X74946048Y-56598575D01*
X74953462Y-56614414D01*
X74985814Y-56684976D01*
X75020328Y-56765039D01*
X75048365Y-56834315D01*
X75068568Y-56885731D01*
X75084615Y-56924805D01*
X75093888Y-56945227D01*
X75095041Y-56946800D01*
X75112096Y-56949407D01*
X75152298Y-56956549D01*
X75210302Y-56967209D01*
X75280763Y-56980371D01*
X75358335Y-56995019D01*
X75437672Y-57010135D01*
X75513431Y-57024704D01*
X75580264Y-57037708D01*
X75632828Y-57048131D01*
X75665776Y-57054956D01*
X75673857Y-57056885D01*
X75682205Y-57061648D01*
X75688506Y-57072404D01*
X75693045Y-57092784D01*
X75696104Y-57126420D01*
X75697967Y-57176941D01*
X75698918Y-57247978D01*
X75699240Y-57343162D01*
X75699257Y-57382178D01*
X75699257Y-57699485D01*
X75623057Y-57714525D01*
X75580663Y-57722681D01*
X75517400Y-57734585D01*
X75440962Y-57748802D01*
X75359043Y-57763896D01*
X75336400Y-57768041D01*
X75260806Y-57782739D01*
X75194953Y-57797191D01*
X75144366Y-57810061D01*
X75114574Y-57820008D01*
X75109612Y-57822973D01*
X75097426Y-57843969D01*
X75079953Y-57884653D01*
X75060577Y-57937008D01*
X75056734Y-57948286D01*
X75031339Y-58018209D01*
X74999817Y-58097104D01*
X74968969Y-58167952D01*
X74968817Y-58168281D01*
X74917447Y-58279419D01*
X75086399Y-58527939D01*
X75255352Y-58776458D01*
X75038429Y-58993744D01*
X74972819Y-59058412D01*
X74912979Y-59115419D01*
X74862267Y-59161719D01*
X74824046Y-59194270D01*
X74801675Y-59210029D01*
X74798466Y-59211029D01*
X74779626Y-59203155D01*
X74741180Y-59181264D01*
X74687330Y-59147953D01*
X74622276Y-59105817D01*
X74551940Y-59058629D01*
X74480555Y-59010496D01*
X74416908Y-58968614D01*
X74365041Y-58935557D01*
X74328995Y-58913904D01*
X74312867Y-58906229D01*
X74293189Y-58912723D01*
X74255875Y-58929836D01*
X74208621Y-58954012D01*
X74203612Y-58956699D01*
X74139977Y-58988613D01*
X74096341Y-59004265D01*
X74069202Y-59004431D01*
X74055057Y-58989890D01*
X74054975Y-58989686D01*
X74047905Y-58972465D01*
X74031042Y-58931585D01*
X74005695Y-58870211D01*
X73973171Y-58791505D01*
X73934778Y-58698633D01*
X73891822Y-58594758D01*
X73850222Y-58494188D01*
X73804504Y-58383202D01*
X73762526Y-58280389D01*
X73725548Y-58188901D01*
X73694827Y-58111887D01*
X73671622Y-58052501D01*
X73657190Y-58013895D01*
X73652743Y-57999486D01*
X73663896Y-57982958D01*
X73693069Y-57956616D01*
X73731971Y-57927573D01*
X73842757Y-57835725D01*
X73929351Y-57730445D01*
X73990716Y-57613952D01*
X74025815Y-57488462D01*
X74033608Y-57356193D01*
X74027943Y-57295143D01*
X73997078Y-57168481D01*
X73943920Y-57056627D01*
X73871767Y-56960687D01*
X73783917Y-56881762D01*
X73683665Y-56820956D01*
X73574310Y-56779373D01*
X73459147Y-56758114D01*
X73341475Y-56758285D01*
X73224590Y-56780987D01*
X73111789Y-56827324D01*
X73006369Y-56898399D01*
X72962368Y-56938597D01*
X72877979Y-57041815D01*
X72819222Y-57154611D01*
X72785704Y-57273696D01*
X72777035Y-57395781D01*
X72792823Y-57517579D01*
X72832678Y-57635802D01*
X72896207Y-57747161D01*
X72983021Y-57848370D01*
X73080029Y-57927573D01*
X73120437Y-57957848D01*
X73148982Y-57983905D01*
X73159257Y-57999511D01*
X73153877Y-58016529D01*
X73138575Y-58057186D01*
X73114612Y-58118328D01*
X73083244Y-58196805D01*
X73045732Y-58289466D01*
X73003333Y-58393158D01*
X72961663Y-58494212D01*
X72915690Y-58605293D01*
X72873107Y-58708227D01*
X72835221Y-58799851D01*
X72803340Y-58877002D01*
X72778771Y-58936517D01*
X72762820Y-58975230D01*
X72756910Y-58989686D01*
X72742948Y-59004371D01*
X72715940Y-59004328D01*
X72672413Y-58988785D01*
X72608890Y-58956970D01*
X72608388Y-58956699D01*
X72560560Y-58932009D01*
X72521897Y-58914024D01*
X72500095Y-58906300D01*
X72499133Y-58906229D01*
X72482721Y-58914064D01*
X72446487Y-58935851D01*
X72394474Y-58969014D01*
X72330725Y-59010977D01*
X72260060Y-59058629D01*
X72188116Y-59106877D01*
X72123274Y-59148837D01*
X72069735Y-59181913D01*
X72031697Y-59203507D01*
X72013533Y-59211029D01*
X71996808Y-59201143D01*
X71963180Y-59173512D01*
X71916010Y-59131181D01*
X71858658Y-59077191D01*
X71794484Y-59014585D01*
X71773497Y-58993669D01*
X71556499Y-58776309D01*
X71721668Y-58533906D01*
X71771864Y-58459467D01*
X71815919Y-58392658D01*
X71851362Y-58337351D01*
X71875719Y-58297415D01*
X71886522Y-58276722D01*
X71886838Y-58275249D01*
X71881143Y-58255744D01*
X71865826Y-58216508D01*
X71843537Y-58164116D01*
X71827893Y-58129041D01*
X71798641Y-58061887D01*
X71771094Y-57994044D01*
X71749737Y-57936720D01*
X71743935Y-57919258D01*
X71727452Y-57872624D01*
X71711340Y-57836591D01*
X71702490Y-57822973D01*
X71682960Y-57814638D01*
X71640334Y-57802823D01*
X71580145Y-57788867D01*
X71507922Y-57774108D01*
X71475600Y-57768041D01*
X71393522Y-57752959D01*
X71314795Y-57738355D01*
X71247109Y-57725666D01*
X71198160Y-57716328D01*
X71188943Y-57714525D01*
X71112743Y-57699485D01*
X71112743Y-57382178D01*
X71112914Y-57277840D01*
X71113616Y-57198899D01*
X71115134Y-57141724D01*
X71117749Y-57102685D01*
X71121746Y-57078151D01*
X71127409Y-57064491D01*
X71135020Y-57058075D01*
X71138143Y-57056885D01*
X71156978Y-57052666D01*
X71198588Y-57044248D01*
X71257630Y-57032647D01*
X71328757Y-57018881D01*
X71406625Y-57003966D01*
X71485887Y-56988918D01*
X71561198Y-56974755D01*
X71627213Y-56962492D01*
X71678587Y-56953147D01*
X71709975Y-56947736D01*
X71716959Y-56946800D01*
X71723285Y-56934282D01*
X71737290Y-56900932D01*
X71756355Y-56853063D01*
X71763634Y-56834315D01*
X71792996Y-56761881D01*
X71827571Y-56681856D01*
X71858537Y-56614414D01*
X71881323Y-56562845D01*
X71896482Y-56520471D01*
X71901542Y-56494520D01*
X71900736Y-56491042D01*
X71890041Y-56474622D01*
X71865620Y-56438103D01*
X71830095Y-56385373D01*
X71786087Y-56320321D01*
X71736217Y-56246837D01*
X71726356Y-56232331D01*
X71668492Y-56146390D01*
X71625956Y-56080947D01*
X71597054Y-56032990D01*
X71580090Y-55999506D01*
X71573367Y-55977481D01*
X71575190Y-55963903D01*
X71575236Y-55963817D01*
X71589586Y-55945983D01*
X71621323Y-55911503D01*
X71667010Y-55863954D01*
X71723204Y-55806908D01*
X71786468Y-55743941D01*
X71793602Y-55736913D01*
X71873330Y-55659706D01*
X71934857Y-55603016D01*
X71979421Y-55565796D01*
X72008257Y-55547001D01*
X72020958Y-55544575D01*
X72039494Y-55555157D01*
X72077961Y-55579602D01*
X72132386Y-55615298D01*
X72198798Y-55659633D01*
X72273225Y-55709997D01*
X72290601Y-55721846D01*
X72537297Y-55890312D01*
X72648706Y-55839748D01*
X72716457Y-55810281D01*
X72789183Y-55780645D01*
X72851703Y-55757016D01*
X72854457Y-55756044D01*
X72903360Y-55738143D01*
X72941057Y-55723006D01*
X72959425Y-55713896D01*
X72959456Y-55713870D01*
X72965285Y-55697403D01*
X72975192Y-55656905D01*
X72988195Y-55596928D01*
X73003309Y-55522026D01*
X73019552Y-55436750D01*
X73020881Y-55429561D01*
X73037175Y-55341700D01*
X73052133Y-55261946D01*
X73064791Y-55195367D01*
X73074186Y-55147033D01*
X73079354Y-55122011D01*
X73079444Y-55121629D01*
X73082589Y-55110985D01*
X73088704Y-55102948D01*
X73101453Y-55097153D01*
X73124500Y-55093233D01*
X73161509Y-55090821D01*
X73216144Y-55089551D01*
X73292067Y-55089057D01*
X73392944Y-55088972D01*
X73406000Y-55088972D01*
X73509910Y-55089034D01*
G37*
D14*
X73509910Y-55089034D02*
X73588454Y-55089464D01*
X73645298Y-55090628D01*
X73684105Y-55092893D01*
X73708538Y-55096626D01*
X73722262Y-55102192D01*
X73728940Y-55109959D01*
X73732236Y-55120291D01*
X73732556Y-55121629D01*
X73737562Y-55145765D01*
X73746829Y-55193387D01*
X73759392Y-55259427D01*
X73774287Y-55338814D01*
X73790551Y-55426482D01*
X73791119Y-55429561D01*
X73807410Y-55515475D01*
X73822652Y-55591382D01*
X73835861Y-55652731D01*
X73846054Y-55694968D01*
X73852248Y-55713541D01*
X73852543Y-55713870D01*
X73870788Y-55722939D01*
X73908405Y-55738053D01*
X73957271Y-55755948D01*
X73957543Y-55756044D01*
X74019093Y-55779179D01*
X74091657Y-55808651D01*
X74160057Y-55838283D01*
X74163294Y-55839748D01*
X74274702Y-55890312D01*
X74521399Y-55721846D01*
X74597077Y-55670489D01*
X74665631Y-55624575D01*
X74723088Y-55586716D01*
X74765476Y-55559523D01*
X74788825Y-55545607D01*
X74791042Y-55544575D01*
X74808010Y-55549170D01*
X74839701Y-55571341D01*
X74887352Y-55612133D01*
X74952198Y-55672591D01*
X75018397Y-55736913D01*
X75082214Y-55800298D01*
X75139329Y-55858137D01*
X75186305Y-55906861D01*
X75219703Y-55942896D01*
X75236085Y-55962670D01*
X75236694Y-55963688D01*
X75238505Y-55977258D01*
X75231683Y-55999419D01*
X75214540Y-56033164D01*
X75185393Y-56081486D01*
X75142555Y-56147378D01*
X75085448Y-56232203D01*
X75034766Y-56306863D01*
X74989461Y-56373826D01*
X74952150Y-56429202D01*
X74925452Y-56469106D01*
X74911985Y-56489648D01*
X74911137Y-56491042D01*
X74912781Y-56510724D01*
X74925245Y-56548979D01*
X74946048Y-56598575D01*
X74953462Y-56614414D01*
X74985814Y-56684976D01*
X75020328Y-56765039D01*
X75048365Y-56834315D01*
X75068568Y-56885731D01*
X75084615Y-56924805D01*
X75093888Y-56945227D01*
X75095041Y-56946800D01*
X75112096Y-56949407D01*
X75152298Y-56956549D01*
X75210302Y-56967209D01*
X75280763Y-56980371D01*
X75358335Y-56995019D01*
X75437672Y-57010135D01*
X75513431Y-57024704D01*
X75580264Y-57037708D01*
X75632828Y-57048131D01*
X75665776Y-57054956D01*
X75673857Y-57056885D01*
X75682205Y-57061648D01*
X75688506Y-57072404D01*
X75693045Y-57092784D01*
X75696104Y-57126420D01*
X75697967Y-57176941D01*
X75698918Y-57247978D01*
X75699240Y-57343162D01*
X75699257Y-57382178D01*
X75699257Y-57699485D01*
X75623057Y-57714525D01*
X75580663Y-57722681D01*
X75517400Y-57734585D01*
X75440962Y-57748802D01*
X75359043Y-57763896D01*
X75336400Y-57768041D01*
X75260806Y-57782739D01*
X75194953Y-57797191D01*
X75144366Y-57810061D01*
X75114574Y-57820008D01*
X75109612Y-57822973D01*
X75097426Y-57843969D01*
X75079953Y-57884653D01*
X75060577Y-57937008D01*
X75056734Y-57948286D01*
X75031339Y-58018209D01*
X74999817Y-58097104D01*
X74968969Y-58167952D01*
X74968817Y-58168281D01*
X74917447Y-58279419D01*
X75086399Y-58527939D01*
X75255352Y-58776458D01*
X75038429Y-58993744D01*
X74972819Y-59058412D01*
X74912979Y-59115419D01*
X74862267Y-59161719D01*
X74824046Y-59194270D01*
X74801675Y-59210029D01*
X74798466Y-59211029D01*
X74779626Y-59203155D01*
X74741180Y-59181264D01*
X74687330Y-59147953D01*
X74622276Y-59105817D01*
X74551940Y-59058629D01*
X74480555Y-59010496D01*
X74416908Y-58968614D01*
X74365041Y-58935557D01*
X74328995Y-58913904D01*
X74312867Y-58906229D01*
X74293189Y-58912723D01*
X74255875Y-58929836D01*
X74208621Y-58954012D01*
X74203612Y-58956699D01*
X74139977Y-58988613D01*
X74096341Y-59004265D01*
X74069202Y-59004431D01*
X74055057Y-58989890D01*
X74054975Y-58989686D01*
X74047905Y-58972465D01*
X74031042Y-58931585D01*
X74005695Y-58870211D01*
X73973171Y-58791505D01*
X73934778Y-58698633D01*
X73891822Y-58594758D01*
X73850222Y-58494188D01*
X73804504Y-58383202D01*
X73762526Y-58280389D01*
X73725548Y-58188901D01*
X73694827Y-58111887D01*
X73671622Y-58052501D01*
X73657190Y-58013895D01*
X73652743Y-57999486D01*
X73663896Y-57982958D01*
X73693069Y-57956616D01*
X73731971Y-57927573D01*
X73842757Y-57835725D01*
X73929351Y-57730445D01*
X73990716Y-57613952D01*
X74025815Y-57488462D01*
X74033608Y-57356193D01*
X74027943Y-57295143D01*
X73997078Y-57168481D01*
X73943920Y-57056627D01*
X73871767Y-56960687D01*
X73783917Y-56881762D01*
X73683665Y-56820956D01*
X73574310Y-56779373D01*
X73459147Y-56758114D01*
X73341475Y-56758285D01*
X73224590Y-56780987D01*
X73111789Y-56827324D01*
X73006369Y-56898399D01*
X72962368Y-56938597D01*
X72877979Y-57041815D01*
X72819222Y-57154611D01*
X72785704Y-57273696D01*
X72777035Y-57395781D01*
X72792823Y-57517579D01*
X72832678Y-57635802D01*
X72896207Y-57747161D01*
X72983021Y-57848370D01*
X73080029Y-57927573D01*
X73120437Y-57957848D01*
X73148982Y-57983905D01*
X73159257Y-57999511D01*
X73153877Y-58016529D01*
X73138575Y-58057186D01*
X73114612Y-58118328D01*
X73083244Y-58196805D01*
X73045732Y-58289466D01*
X73003333Y-58393158D01*
X72961663Y-58494212D01*
X72915690Y-58605293D01*
X72873107Y-58708227D01*
X72835221Y-58799851D01*
X72803340Y-58877002D01*
X72778771Y-58936517D01*
X72762820Y-58975230D01*
X72756910Y-58989686D01*
X72742948Y-59004371D01*
X72715940Y-59004328D01*
X72672413Y-58988785D01*
X72608890Y-58956970D01*
X72608388Y-58956699D01*
X72560560Y-58932009D01*
X72521897Y-58914024D01*
X72500095Y-58906300D01*
X72499133Y-58906229D01*
X72482721Y-58914064D01*
X72446487Y-58935851D01*
X72394474Y-58969014D01*
X72330725Y-59010977D01*
X72260060Y-59058629D01*
X72188116Y-59106877D01*
X72123274Y-59148837D01*
X72069735Y-59181913D01*
X72031697Y-59203507D01*
X72013533Y-59211029D01*
X71996808Y-59201143D01*
X71963180Y-59173512D01*
X71916010Y-59131181D01*
X71858658Y-59077191D01*
X71794484Y-59014585D01*
X71773497Y-58993669D01*
X71556499Y-58776309D01*
X71721668Y-58533906D01*
X71771864Y-58459467D01*
X71815919Y-58392658D01*
X71851362Y-58337351D01*
X71875719Y-58297415D01*
X71886522Y-58276722D01*
X71886838Y-58275249D01*
X71881143Y-58255744D01*
X71865826Y-58216508D01*
X71843537Y-58164116D01*
X71827893Y-58129041D01*
X71798641Y-58061887D01*
X71771094Y-57994044D01*
X71749737Y-57936720D01*
X71743935Y-57919258D01*
X71727452Y-57872624D01*
X71711340Y-57836591D01*
X71702490Y-57822973D01*
X71682960Y-57814638D01*
X71640334Y-57802823D01*
X71580145Y-57788867D01*
X71507922Y-57774108D01*
X71475600Y-57768041D01*
X71393522Y-57752959D01*
X71314795Y-57738355D01*
X71247109Y-57725666D01*
X71198160Y-57716328D01*
X71188943Y-57714525D01*
X71112743Y-57699485D01*
X71112743Y-57382178D01*
X71112914Y-57277840D01*
X71113616Y-57198899D01*
X71115134Y-57141724D01*
X71117749Y-57102685D01*
X71121746Y-57078151D01*
X71127409Y-57064491D01*
X71135020Y-57058075D01*
X71138143Y-57056885D01*
X71156978Y-57052666D01*
X71198588Y-57044248D01*
X71257630Y-57032647D01*
X71328757Y-57018881D01*
X71406625Y-57003966D01*
X71485887Y-56988918D01*
X71561198Y-56974755D01*
X71627213Y-56962492D01*
X71678587Y-56953147D01*
X71709975Y-56947736D01*
X71716959Y-56946800D01*
X71723285Y-56934282D01*
X71737290Y-56900932D01*
X71756355Y-56853063D01*
X71763634Y-56834315D01*
X71792996Y-56761881D01*
X71827571Y-56681856D01*
X71858537Y-56614414D01*
X71881323Y-56562845D01*
X71896482Y-56520471D01*
X71901542Y-56494520D01*
X71900736Y-56491042D01*
X71890041Y-56474622D01*
X71865620Y-56438103D01*
X71830095Y-56385373D01*
X71786087Y-56320321D01*
X71736217Y-56246837D01*
X71726356Y-56232331D01*
X71668492Y-56146390D01*
X71625956Y-56080947D01*
X71597054Y-56032990D01*
X71580090Y-55999506D01*
X71573367Y-55977481D01*
X71575190Y-55963903D01*
X71575236Y-55963817D01*
X71589586Y-55945983D01*
X71621323Y-55911503D01*
X71667010Y-55863954D01*
X71723204Y-55806908D01*
X71786468Y-55743941D01*
X71793602Y-55736913D01*
X71873330Y-55659706D01*
X71934857Y-55603016D01*
X71979421Y-55565796D01*
X72008257Y-55547001D01*
X72020958Y-55544575D01*
X72039494Y-55555157D01*
X72077961Y-55579602D01*
X72132386Y-55615298D01*
X72198798Y-55659633D01*
X72273225Y-55709997D01*
X72290601Y-55721846D01*
X72537297Y-55890312D01*
X72648706Y-55839748D01*
X72716457Y-55810281D01*
X72789183Y-55780645D01*
X72851703Y-55757016D01*
X72854457Y-55756044D01*
X72903360Y-55738143D01*
X72941057Y-55723006D01*
X72959425Y-55713896D01*
X72959456Y-55713870D01*
X72965285Y-55697403D01*
X72975192Y-55656905D01*
X72988195Y-55596928D01*
X73003309Y-55522026D01*
X73019552Y-55436750D01*
X73020881Y-55429561D01*
X73037175Y-55341700D01*
X73052133Y-55261946D01*
X73064791Y-55195367D01*
X73074186Y-55147033D01*
X73079354Y-55122011D01*
X73079444Y-55121629D01*
X73082589Y-55110985D01*
X73088704Y-55102948D01*
X73101453Y-55097153D01*
X73124500Y-55093233D01*
X73161509Y-55090821D01*
X73216144Y-55089551D01*
X73292067Y-55089057D01*
X73392944Y-55088972D01*
X73406000Y-55088972D01*
X73509910Y-55089034D01*
%LPC*%
D15*
X88392000Y-79492000D03*
D16*
X90932000Y-79492000D03*
X93472000Y-79492000D03*
X96012000Y-79492000D03*
X96012000Y-71872000D03*
X93472000Y-71872000D03*
X90932000Y-71872000D03*
X88392000Y-71872000D03*
D17*
X108000000Y-62100000D03*
D16*
X115620000Y-62100000D03*
D15*
X116596000Y-48150000D03*
D16*
X114056000Y-48150000D03*
X111516000Y-48150000D03*
X108976000Y-48150000D03*
X106436000Y-48150000D03*
X103896000Y-48150000D03*
X101356000Y-48150000D03*
X98816000Y-48150000D03*
X98816000Y-55770000D03*
X101356000Y-55770000D03*
X103896000Y-55770000D03*
X106436000Y-55770000D03*
X108976000Y-55770000D03*
X111516000Y-55770000D03*
X114056000Y-55770000D03*
X116596000Y-55770000D03*
D18*
X125150000Y-55375000D03*
D19*
X125150000Y-57915000D03*
D20*
X128700000Y-88650000D03*
D21*
X128700000Y-86110000D03*
X128700000Y-83570000D03*
X128700000Y-81030000D03*
D17*
X105700000Y-65100000D03*
D16*
X98080000Y-65100000D03*
D18*
X93980000Y-59949000D03*
D19*
X93980000Y-57409000D03*
D17*
X118080000Y-65100000D03*
D16*
X125700000Y-65100000D03*
D18*
X89408000Y-67564000D03*
D19*
X89408000Y-65024000D03*
D18*
X89408000Y-59949000D03*
D19*
X89408000Y-57409000D03*
D17*
X118080000Y-62100000D03*
D16*
X125700000Y-62100000D03*
D22*
X111760000Y-85850000D03*
D23*
X106680000Y-85850000D03*
D24*
X84328000Y-62432000D03*
X84328000Y-55932000D03*
D25*
X122300000Y-49450000D03*
D26*
X124800000Y-49450000D03*
X127300000Y-49450000D03*
X129800000Y-49450000D03*
X132300000Y-49450000D03*
D17*
X85090000Y-73112000D03*
X85090000Y-68112000D03*
X95600000Y-49300000D03*
X95600000Y-54300000D03*
X85090000Y-80478000D03*
X85090000Y-75478000D03*
X76708000Y-92964000D03*
D16*
X76708000Y-85344000D03*
D24*
X129250000Y-68750000D03*
X135750000Y-68750000D03*
X129250000Y-64250000D03*
X135750000Y-64250000D03*
X135750000Y-72050000D03*
X129250000Y-72050000D03*
X129250000Y-76550000D03*
X135750000Y-76550000D03*
D27*
X99366000Y-75438000D03*
X108966000Y-75438000D03*
D18*
X106666000Y-67938000D03*
D19*
X104166000Y-67938000D03*
X101666000Y-67938000D03*
D17*
X105700000Y-62100000D03*
D16*
X98080000Y-62100000D03*
D22*
X101092000Y-85852000D03*
D23*
X96012000Y-85852000D03*
D28*
X80518000Y-92710000D03*
D29*
X80518000Y-82550000D03*
D17*
X125700000Y-69350000D03*
D16*
X125700000Y-76970000D03*
D17*
X108000000Y-65100000D03*
D16*
X115620000Y-65100000D03*
D30*
X82000000Y-70950000D03*
D31*
X75700000Y-70950000D03*
D32*
X79100000Y-75750000D03*
D17*
X122174000Y-89360000D03*
D16*
X122174000Y-81740000D03*
D18*
X134350000Y-55375000D03*
D19*
X134350000Y-57915000D03*
D20*
X88700000Y-49291000D03*
D21*
X88700000Y-51831000D03*
X88700000Y-54371000D03*
D27*
X112450000Y-75375000D03*
X122050000Y-75375000D03*
D18*
X119750000Y-67875000D03*
D19*
X117250000Y-67875000D03*
X114750000Y-67875000D03*
D18*
X129750000Y-55375000D03*
D19*
X129750000Y-57915000D03*
D22*
X90424000Y-85850000D03*
D23*
X85344000Y-85850000D03*
D17*
X105700000Y-59100000D03*
D16*
X98080000Y-59100000D03*
D17*
X73660000Y-92964000D03*
D16*
X73660000Y-85344000D03*
D18*
X93980000Y-67569000D03*
D19*
X93980000Y-65029000D03*
D18*
X72550000Y-81026000D03*
D19*
X75090000Y-81026000D03*
X77630000Y-81026000D03*
D17*
X108000000Y-59100000D03*
D16*
X115620000Y-59100000D03*
D33*
X79930000Y-49350000D03*
X81200000Y-49350000D03*
D24*
X74850000Y-49350000D03*
X73600000Y-49350000D03*
D17*
X116078000Y-89360000D03*
D16*
X116078000Y-81740000D03*
D17*
X119126000Y-89360000D03*
D16*
X119126000Y-81740000D03*
D18*
X120550000Y-55375000D03*
D19*
X120550000Y-57915000D03*
D20*
X92300000Y-49291000D03*
D21*
X92300000Y-51831000D03*
X92300000Y-54371000D03*
D15*
X98400000Y-93000000D03*
D16*
X100940000Y-93000000D03*
X103480000Y-93000000D03*
X106020000Y-93000000D03*
X108560000Y-93000000D03*
X111100000Y-93000000D03*
X113640000Y-93000000D03*
X116180000Y-93000000D03*
X121260000Y-93000000D03*
X123800000Y-93000000D03*
X126340000Y-93000000D03*
X128880000Y-93000000D03*
X131420000Y-93000000D03*
X133960000Y-93000000D03*
X133960000Y-44740000D03*
X131420000Y-44740000D03*
X128880000Y-44740000D03*
X126340000Y-44740000D03*
X123800000Y-44740000D03*
X121260000Y-44740000D03*
X118720000Y-44740000D03*
X116180000Y-44740000D03*
X112120000Y-44740000D03*
X109580000Y-44740000D03*
X107040000Y-44740000D03*
X104500000Y-44740000D03*
X101960000Y-44740000D03*
X99420000Y-44740000D03*
X96880000Y-44740000D03*
X94340000Y-44740000D03*
X91800000Y-44740000D03*
X89260000Y-44740000D03*
M02*
